<?xml version="1.0" encoding="utf-8"?>
<!-- Generator: Adobe Illustrator 24.0.1, SVG Export Plug-In . SVG Version: 6.00 Build 0)  -->
<svg version="1.1" xmlns="http://www.w3.org/2000/svg" xmlns:xlink="http://www.w3.org/1999/xlink" x="0px" y="0px"
	 viewBox="0 0 500 450" style="enable-background:new 0 0 500 450;" xml:space="preserve">
<style type="text/css">
	.st0{fill:#D1E3FF;}
	.st1{fill:#E3EEFF;}
	.st2{opacity:0.7;fill:#D1E3FF;}
	.st3{fill:#F5FCFF;}
	.st4{fill:#FFFFFF;}
	.st5{fill:#E2EEFF;}
	.st6{fill:#EEF9FF;}
	.st7{opacity:0.4;fill:#D1E3FF;}
	.st8{fill:#F3F8FF;}
	.st9{display:none;}
	.st10{display:inline;opacity:0.4;fill:#D4E8FF;}
	.st11{fill:#F0F6FF;}
	.st12{fill:#0053CC;}
	.st13{opacity:0.7;fill:#318FFF;}
	.st14{fill:#318FFF;}
	.st15{fill:#DCE9FF;}
	.st16{opacity:0.8;}
	.st17{fill:#FF8B7B;}
	.st18{fill:#056CE8;}
	.st19{fill:#0F264C;}
	.st20{fill:#FF5652;}
	.st21{fill:#9FC6FF;}
	.st22{fill:#14365B;}
	.st23{fill:#0A1B35;}
	.st24{fill:#EA7063;}
	.st25{fill:#77B3FC;}
</style>
<g id="Background_2">
	<g>
		<g>
			<g>
				<g>
					<rect y="382.4" class="st0" width="500" height="0.2"/>
					<rect x="398.4" y="393.3" class="st0" width="24.8" height="0.2"/>
					<rect x="430.6" y="393.2" class="st0" width="8.4" height="0.2"/>
					<rect x="280" y="394.8" class="st0" width="52" height="0.2"/>
					<rect x="260" y="397.5" class="st0" width="7.8" height="0.2"/>
					<rect x="98.6" y="389.6" class="st0" width="13.4" height="0.2"/>
					<rect x="117.5" y="389.6" class="st0" width="67.8" height="0.2"/>
					<rect x="80.4" y="395.7" class="st0" width="47.1" height="0.2"/>
					<path class="st0" d="M237,337.8H43.9c-3.1,0-5.7-2.6-5.7-5.7V60.7c0-3.1,2.6-5.7,5.7-5.7H237c3.1,0,5.7,2.6,5.7,5.7v271.4
						C242.7,335.2,240.2,337.8,237,337.8z M43.9,55.2c-3,0-5.5,2.4-5.5,5.5v271.4c0,3,2.4,5.5,5.5,5.5H237c3,0,5.5-2.4,5.5-5.5V60.7
						c0-3-2.4-5.5-5.5-5.5H43.9z"/>
					<path class="st0" d="M453.3,337.8H260.2c-3.1,0-5.7-2.6-5.7-5.7V60.7c0-3.1,2.6-5.7,5.7-5.7h193.1c3.1,0,5.7,2.6,5.7,5.7v271.4
						C459,335.2,456.5,337.8,453.3,337.8z M260.2,55.2c-3,0-5.5,2.4-5.5,5.5v271.4c0,3,2.4,5.5,5.5,5.5h193.1c3,0,5.5-2.4,5.5-5.5
						V60.7c0-3-2.4-5.5-5.5-5.5H260.2z"/>
				</g>
			</g>
		</g>
		<g>
			<g>
				<g>
					
						<rect x="341.8" y="318.3" transform="matrix(-1 -1.224647e-16 1.224647e-16 -1 718.8332 700.6794)" class="st0" width="35.3" height="64.1"/>
					<rect x="377.1" y="318.3" class="st1" width="42.2" height="64.1"/>
					
						<rect x="341.8" y="323.7" transform="matrix(-1 -1.224647e-16 1.224647e-16 -1 761.3547 650.3069)" class="st2" width="77.9" height="2.9"/>
				</g>
				<g>
					
						<rect x="339.8" y="311.6" transform="matrix(-1 -1.224647e-16 1.224647e-16 -1 716.8834 636.4895)" class="st0" width="37.3" height="13.4"/>
					<rect x="377.1" y="311.6" class="st1" width="44.1" height="13.4"/>
				</g>
			</g>
			<g>
				<rect x="75.1" y="74" class="st0" width="118.9" height="141.9"/>
				<rect x="77.7" y="74" class="st1" width="121.8" height="141.9"/>
				<rect x="75.1" y="215.9" class="st0" width="118.9" height="10.1"/>
				<rect x="86.7" y="215.9" class="st1" width="121.8" height="10.1"/>
				
					<rect x="75.3" y="91.6" transform="matrix(-1.836970e-16 1 -1 -1.836970e-16 283.5287 6.3488)" class="st3" width="126.7" height="106.6"/>
				<polygon class="st4" points="98.4,208.3 143.1,81.6 164.2,81.6 119.5,208.3 				"/>
				<path class="st5" d="M88.8,165.3c-0.3,0-0.5-0.2-0.5-0.5V86.6c0-0.3,0.2-0.5,0.5-0.5c0.3,0,0.5,0.2,0.5,0.5v78.2
					C89.4,165.1,89.1,165.3,88.8,165.3z"/>
				<polygon class="st4" points="124,208.3 168.7,81.6 177,81.6 132.2,208.3 				"/>
				
					<rect x="128.1" y="144.5" transform="matrix(-1.836970e-16 1 -1 -1.836970e-16 336.3406 -46.4631)" class="st0" width="126.7" height="1"/>
				<polygon class="st0" points="201.3,91.4 82.4,91.4 81.7,84.6 200.6,84.6 				"/>
				<polygon class="st0" points="201.3,96.3 82.4,96.3 81.7,89.5 200.6,89.5 				"/>
				<polygon class="st0" points="201.3,102.3 82.4,102.3 81.7,95.5 200.6,95.5 				"/>
				<polygon class="st0" points="201.3,108.9 82.4,108.9 81.7,102.1 200.6,102.1 				"/>
				<polygon class="st0" points="201.3,116.9 82.4,116.9 81.7,110.1 200.6,110.1 				"/>
				<polygon class="st0" points="201.3,125.8 82.4,125.8 81.7,119 200.6,119 				"/>
			</g>
			<g>
				<rect x="291.4" y="74" class="st0" width="118.9" height="141.9"/>
				<rect x="294" y="74" class="st1" width="121.8" height="141.9"/>
				<rect x="291.4" y="215.9" class="st0" width="118.9" height="10.1"/>
				<rect x="303" y="215.9" class="st1" width="121.8" height="10.1"/>
				
					<rect x="291.6" y="91.6" transform="matrix(-1.836970e-16 1 -1 -1.836970e-16 499.8266 -209.9491)" class="st3" width="126.7" height="106.6"/>
				<polygon class="st4" points="314.7,208.3 359.4,81.6 380.5,81.6 335.8,208.3 				"/>
				<path class="st5" d="M305.1,165.3c-0.3,0-0.5-0.2-0.5-0.5V86.6c0-0.3,0.2-0.5,0.5-0.5c0.3,0,0.5,0.2,0.5,0.5v78.2
					C305.7,165.1,305.4,165.3,305.1,165.3z"/>
				<polygon class="st4" points="340.3,208.3 385,81.6 393.3,81.6 348.5,208.3 				"/>
				
					<rect x="344.4" y="144.5" transform="matrix(-1.836970e-16 1 -1 -1.836970e-16 552.6385 -262.761)" class="st0" width="126.7" height="1"/>
				<polygon class="st0" points="417.6,91.4 298.7,91.4 298,84.6 416.9,84.6 				"/>
				<polygon class="st0" points="417.6,96.3 298.7,96.3 298,89.5 416.9,89.5 				"/>
				<polygon class="st0" points="417.6,102.3 298.7,102.3 298,95.5 416.9,95.5 				"/>
				<polygon class="st0" points="417.6,108.9 298.7,108.9 298,102.1 416.9,102.1 				"/>
				<polygon class="st0" points="417.6,116.9 298.7,116.9 298,110.1 416.9,110.1 				"/>
				<polygon class="st0" points="417.6,125.8 298.7,125.8 298,119 416.9,119 				"/>
			</g>
			<g>
				<g>
					<rect x="294.3" y="292.5" class="st0" width="23.7" height="89.9"/>
					<polygon class="st6" points="313.5,382.4 318,382.4 318,371.4 308.8,371.4 					"/>
					<rect x="63.8" y="292.5" class="st0" width="23.7" height="89.9"/>
					<rect x="83.6" y="292.5" class="st6" width="234.4" height="83.9"/>
					
						<rect x="228.5" y="270.5" transform="matrix(6.123234e-17 -1 1 6.123234e-17 -68.1712 585.04)" class="st0" width="59.9" height="112.2"/>
					
						<rect x="113.3" y="270.5" transform="matrix(6.123234e-17 -1 1 6.123234e-17 -183.394 469.8172)" class="st0" width="59.9" height="112.2"/>
					
						<rect x="255.1" y="309.8" transform="matrix(-1.836970e-16 1 -1 -1.836970e-16 624.3234 107.4545)" class="st0" width="6.7" height="112.2"/>
					
						<rect x="139.9" y="309.8" transform="matrix(-1.836970e-16 1 -1 -1.836970e-16 509.1006 222.6772)" class="st0" width="6.7" height="112.2"/>
					<path class="st6" d="M182.7,300.2h-79c-3.6,0-6.9-1.5-9.4-4l0,0h97.8l0,0C189.7,298.8,186.3,300.2,182.7,300.2z"/>
					<path class="st6" d="M298.4,300.2h-79c-3.6,0-6.9-1.5-9.4-4l0,0h97.8h0C305.3,298.8,301.9,300.2,298.4,300.2z"/>
					<polygon class="st6" points="88.1,382.4 83.6,382.4 83.6,371.4 92.9,371.4 					"/>
				</g>
				<g>
					<rect x="229.1" y="237.2" class="st7" width="26.4" height="55.2"/>
					<polygon class="st0" points="277.8,292.5 233,292.5 228.8,232.8 273.6,232.8 					"/>
					<polygon class="st8" points="282.9,292.5 234.3,292.5 230.1,232.8 278.6,232.8 					"/>
					<polygon class="st4" points="236.5,290.2 232.6,235.1 276.4,235.1 280.3,290.2 					"/>
					<polygon class="st8" points="247.1,277.8 245,247.4 265.8,247.4 268,277.8 					"/>
				</g>
				<g>
					<circle class="st1" cx="159.4" cy="271.1" r="11.6"/>
					<circle class="st1" cx="179.3" cy="276.6" r="11.6"/>
					
						<ellipse transform="matrix(0.9246 -0.3809 0.3809 0.9246 -88.7259 95.1633)" class="st1" cx="196.1" cy="271.8" rx="7.8" ry="7.8"/>
					
						<ellipse transform="matrix(0.1598 -0.9872 0.9872 0.1598 -116.9515 390.5955)" class="st1" cx="171" cy="264" rx="7.8" ry="7.8"/>
					<path class="st0" d="M140.8,274.5c0,0,0.9,17.9,35.8,17.9s35.8-17.9,35.8-17.9H140.8z"/>
				</g>
				<g>
					<path class="st0" d="M108.6,286.3c0,0-11.4-19.6,4.4-35.2c0,0,4.1,2.7,4,6.3c-0.1,3.6-4.4,4.5-3.5,7.5c0.9,3,5,6,2.3,8.4
						c-2.7,2.5,0.4,4.7,0.3,7.7C116,284.2,108.6,286.3,108.6,286.3z"/>
					<path class="st0" d="M109.4,288.1c0,0,4.6-22.2-15.3-32c0,0-3.1,3.8-1.9,7.2c1.2,3.4,5.6,2.9,5.7,6c0.1,3.1-2.9,7.2,0.4,8.8
						c3.3,1.5,1.1,4.6,2.2,7.4C101.7,288.4,109.4,288.1,109.4,288.1z"/>
					<path class="st1" d="M92,277.8c0,0,0.4,14.6,14.9,14.6c14.5,0,14.9-14.6,14.9-14.6H92z"/>
				</g>
			</g>
		</g>
	</g>
</g>
<g id="Background_1" class="st9">
	<path class="st10" d="M138.1,278.9C61.9,236.4,56.7,79.7,167.9,93.5c38.9,4.8,67.2,40.1,103.4,51.9c41.9,13.7,72.2-8.7,112-6.3
		c94.6,5.7,97.8,123.5,17,154.1c-43.5,16.5-85.6,13.4-129.3,7.1C233,294.9,174,298.9,138.1,278.9z"/>
</g>
<g id="Objects">
	<g>
		<ellipse class="st11" cx="250" cy="416.2" rx="193.9" ry="11.3"/>
		<g>
			<g>
				<g>
					<g>
						<path class="st12" d="M180.5,272.4c-1.3,0-2.3-1-2.3-2.3c0-1.3,1-2.3,2.3-2.3c5.7,0,10.5-8.2,10.5-17.9c0-1.3,1-2.3,2.3-2.3
							c1.3,0,2.3,1,2.3,2.3C195.7,262.5,189,272.4,180.5,272.4z"/>
						<path class="st12" d="M215.7,272.4c-1.3,0-2.3-1-2.3-2.3c0-1.3,1-2.3,2.3-2.3c5.7,0,10.5-8.2,10.5-17.9c0-1.3,1-2.3,2.3-2.3
							c1.3,0,2.3,1,2.3,2.3C230.9,262.5,224.3,272.4,215.7,272.4z"/>
						<path class="st12" d="M251,272.4c-1.3,0-2.3-1-2.3-2.3c0-1.3,1-2.3,2.3-2.3c5.7,0,10.5-8.2,10.5-17.9c0-1.3,1-2.3,2.3-2.3
							c1.3,0,2.3,1,2.3,2.3C266.2,262.5,259.6,272.4,251,272.4z"/>
						<path class="st12" d="M286.3,272.4c-1.3,0-2.3-1-2.3-2.3c0-1.3,1-2.3,2.3-2.3c5.7,0,10.5-8.2,10.5-17.9c0-1.3,1-2.3,2.3-2.3
							c1.3,0,2.3,1,2.3,2.3C301.5,262.5,294.8,272.4,286.3,272.4z"/>
						<path class="st12" d="M321.6,272.4c-1.3,0-2.3-1-2.3-2.3c0-1.3,1-2.3,2.3-2.3c5.7,0,10.5-8.2,10.5-17.9c0-1.3,1-2.3,2.3-2.3
							c1.3,0,2.3,1,2.3,2.3C336.8,262.5,330.1,272.4,321.6,272.4z"/>
						<path class="st12" d="M356.9,272.4c-1.3,0-2.3-1-2.3-2.3c0-1.3,1-2.3,2.3-2.3c5.7,0,10.5-8.2,10.5-17.9c0-1.3,1-2.3,2.3-2.3
							c1.3,0,2.3,1,2.3,2.3C372.1,262.5,365.4,272.4,356.9,272.4z"/>
					</g>
					<g>
						<path class="st13" d="M158.3,252.3h227.2c6.2,0,11.6,5,12.2,11.2l12.6,141.8c0.5,6.2-4,11.2-10.2,11.2H172.9
							c-6.2,0-11.6-5-12.2-11.2l-12.6-141.8C147.6,257.3,152.2,252.3,158.3,252.3z"/>
						<path class="st14" d="M383.6,252.3H156.4c-6.2,0-11.4,5-11.7,11.2l-6.4,141.8c-0.3,6.2,4.5,11.2,10.7,11.2h227.2
							c6.2,0,11.4-5,11.7-11.2l6.4-141.8C394.6,257.3,389.8,252.3,383.6,252.3z"/>
						<path class="st15" d="M160.6,379l5.3-117.1c0.1-2.4,2.1-4.3,4.5-4.3h198.8c2.4,0,4.2,1.9,4.1,4.3L368,379
							c-0.1,2.4-2.1,4.3-4.5,4.3H164.7C162.3,383.3,160.5,381.4,160.6,379z"/>
						<path class="st15" d="M155,388.6l5.6-123c0.1-2.5,2.2-4.5,4.7-4.5H374c2.5,0,4.4,2,4.3,4.5l-5.6,123c-0.1,2.5-2.2,4.5-4.7,4.5
							H159.3C156.8,393.1,154.9,391,155,388.6z"/>
						<path class="st4" d="M149.8,398.5l5.8-128.3c0.1-2.6,2.3-4.7,4.9-4.7h217.8c2.6,0,4.6,2.1,4.5,4.7L377,398.5
							c-0.1,2.6-2.3,4.7-4.9,4.7H154.3C151.7,403.2,149.7,401.1,149.8,398.5z"/>
						<g class="st16">
							<path class="st15" d="M190.2,322.1h-23.1c-2.2,0-3.8-1.8-3.7-3.9l1-23.1c0.1-2.2,1.9-3.9,4.1-3.9h23.1c2.2,0,3.8,1.8,3.7,3.9
								l-1,23.1C194.2,320.4,192.4,322.1,190.2,322.1z"/>
							<path class="st15" d="M225.5,322.1h-23.1c-2.2,0-3.8-1.8-3.7-3.9l1-23.1c0.1-2.2,1.9-3.9,4.1-3.9h23.1c2.2,0,3.8,1.8,3.7,3.9
								l-1,23.1C229.5,320.4,227.7,322.1,225.5,322.1z"/>
							<path class="st15" d="M260.8,322.1h-23.1c-2.2,0-3.8-1.8-3.7-3.9l1-23.1c0.1-2.2,1.9-3.9,4.1-3.9h23.1c2.2,0,3.8,1.8,3.7,3.9
								l-1,23.1C264.8,320.4,262.9,322.1,260.8,322.1z"/>
							<path class="st15" d="M296.1,322.1H273c-2.2,0-3.8-1.8-3.7-3.9l1-23.1c0.1-2.2,1.9-3.9,4.1-3.9h23.1c2.2,0,3.8,1.8,3.7,3.9
								l-1,23.1C300.1,320.4,298.2,322.1,296.1,322.1z"/>
							<path class="st15" d="M331.4,322.1h-23.1c-2.2,0-3.8-1.8-3.7-3.9l1-23.1c0.1-2.2,1.9-3.9,4.1-3.9h23.1c2.2,0,3.8,1.8,3.7,3.9
								l-1,23.1C335.4,320.4,333.5,322.1,331.4,322.1z"/>
							<path class="st15" d="M366.7,322.1h-23.1c-2.2,0-3.8-1.8-3.7-3.9l1-23.1c0.1-2.2,1.9-3.9,4.1-3.9h23.1c2.2,0,3.8,1.8,3.7,3.9
								l-1,23.1C370.7,320.4,368.8,322.1,366.7,322.1z"/>
							<g>
								<path class="st14" d="M356.9,273.2L356.9,273.2c-1.8,0-3.1-1.4-3-3.2l0,0c0.1-1.6,1.5-3,3.1-3l0,0c1.8,0,3.1,1.4,3,3.2l0,0
									C359.9,271.8,358.5,273.2,356.9,273.2z"/>
								<path class="st14" d="M321.6,273.2L321.6,273.2c-1.8,0-3.1-1.4-3-3.2l0,0c0.1-1.6,1.5-3,3.1-3l0,0c1.8,0,3.1,1.4,3,3.2l0,0
									C324.6,271.8,323.2,273.2,321.6,273.2z"/>
								<path class="st14" d="M286.3,273.2L286.3,273.2c-1.8,0-3.1-1.4-3-3.2l0,0c0.1-1.6,1.5-3,3.1-3l0,0c1.8,0,3.1,1.4,3,3.2l0,0
									C289.3,271.8,287.9,273.2,286.3,273.2z"/>
								<path class="st14" d="M251,273.2L251,273.2c-1.8,0-3.1-1.4-3-3.2l0,0c0.1-1.6,1.5-3,3.1-3l0,0c1.8,0,3.1,1.4,3,3.2l0,0
									C254,271.8,252.6,273.2,251,273.2z"/>
								<path class="st14" d="M215.7,273.2L215.7,273.2c-1.8,0-3.1-1.4-3-3.2l0,0c0.1-1.6,1.5-3,3.1-3l0,0c1.8,0,3.1,1.4,3,3.2l0,0
									C218.7,271.8,217.3,273.2,215.7,273.2z"/>
								<path class="st14" d="M180.4,273.2L180.4,273.2c-1.8,0-3.1-1.4-3-3.2l0,0c0.1-1.6,1.5-3,3.1-3l0,0c1.8,0,3.1,1.4,3,3.2l0,0
									C183.5,271.8,182.1,273.2,180.4,273.2z"/>
							</g>
						</g>
						<g>
							<path class="st12" d="M189.2,284.4h-17.7c-1.1,0-1.9-0.9-1.9-2l0,0c0-1.1,1-2,2-2h17.7c1.1,0,1.9,0.9,1.9,2l0,0
								C191.2,283.5,190.3,284.4,189.2,284.4z"/>
							<path class="st12" d="M224.5,284.4h-17.7c-1.1,0-1.9-0.9-1.9-2l0,0c0-1.1,1-2,2-2h17.7c1.1,0,1.9,0.9,1.9,2l0,0
								C226.5,283.5,225.6,284.4,224.5,284.4z"/>
							<path class="st12" d="M259.8,284.4h-17.7c-1.1,0-1.9-0.9-1.9-2l0,0c0-1.1,1-2,2-2H260c1.1,0,1.9,0.9,1.9,2l0,0
								C261.8,283.5,260.9,284.4,259.8,284.4z"/>
							<path class="st12" d="M295.1,284.4h-17.7c-1.1,0-1.9-0.9-1.9-2l0,0c0-1.1,1-2,2-2h17.7c1.1,0,1.9,0.9,1.9,2l0,0
								C297.1,283.5,296.2,284.4,295.1,284.4z"/>
							<path class="st12" d="M330.4,284.4h-17.7c-1.1,0-1.9-0.9-1.9-2l0,0c0-1.1,1-2,2-2h17.7c1.1,0,1.9,0.9,1.9,2l0,0
								C332.4,283.5,331.5,284.4,330.4,284.4z"/>
							<path class="st12" d="M365.7,284.4h-17.7c-1.1,0-1.9-0.9-1.9-2l0,0c0-1.1,1-2,2-2h17.7c1.1,0,1.9,0.9,1.9,2l0,0
								C367.7,283.5,366.8,284.4,365.7,284.4z"/>
						</g>
						<g class="st16">
							<path class="st15" d="M188.6,358h-23.1c-2.2,0-3.8-1.8-3.7-3.9l1-23.1c0.1-2.2,1.9-3.9,4.1-3.9H190c2.2,0,3.8,1.8,3.7,3.9
								l-1,23.1C192.6,356.2,190.8,358,188.6,358z"/>
							<path class="st15" d="M223.9,358h-23.1c-2.2,0-3.8-1.8-3.7-3.9l1-23.1c0.1-2.2,1.9-3.9,4.1-3.9h23.1c2.2,0,3.8,1.8,3.7,3.9
								l-1,23.1C227.9,356.2,226,358,223.9,358z"/>
							<path class="st15" d="M259.2,358h-23.1c-2.2,0-3.8-1.8-3.7-3.9l1-23.1c0.1-2.2,1.9-3.9,4.1-3.9h23.1c2.2,0,3.8,1.8,3.7,3.9
								l-1,23.1C263.2,356.2,261.3,358,259.2,358z"/>
							<path class="st15" d="M294.5,358h-23.1c-2.2,0-3.8-1.8-3.7-3.9l1-23.1c0.1-2.2,1.9-3.9,4.1-3.9h23.1c2.2,0,3.8,1.8,3.7,3.9
								l-1,23.1C298.5,356.2,296.6,358,294.5,358z"/>
							<path class="st15" d="M329.7,358h-23.1c-2.2,0-3.8-1.8-3.7-3.9l1-23.1c0.1-2.2,1.9-3.9,4.1-3.9h23.1c2.2,0,3.8,1.8,3.7,3.9
								l-1,23.1C333.7,356.2,331.9,358,329.7,358z"/>
							<path class="st15" d="M365,358h-23.1c-2.2,0-3.8-1.8-3.7-3.9l1-23.1c0.1-2.2,1.9-3.9,4.1-3.9h23.1c2.2,0,3.8,1.8,3.7,3.9
								l-1,23.1C369,356.2,367.2,358,365,358z"/>
						</g>
						<g class="st16">
							<path class="st15" d="M187,393.9h-23.1c-2.2,0-3.8-1.8-3.7-3.9l1-23.1c0.1-2.2,1.9-3.9,4.1-3.9h23.1c2.2,0,3.8,1.8,3.7,3.9
								l-1,23.1C191,392.1,189.1,393.9,187,393.9z"/>
							<path class="st15" d="M222.3,393.9h-23.1c-2.2,0-3.8-1.8-3.7-3.9l1-23.1c0.1-2.2,1.9-3.9,4.1-3.9h23.1c2.2,0,3.8,1.8,3.7,3.9
								l-1,23.1C226.3,392.1,224.4,393.9,222.3,393.9z"/>
							<path class="st15" d="M257.6,393.9h-23.1c-2.2,0-3.8-1.8-3.7-3.9l1-23.1c0.1-2.2,1.9-3.9,4.1-3.9H259c2.2,0,3.8,1.8,3.7,3.9
								l-1,23.1C261.6,392.1,259.7,393.9,257.6,393.9z"/>
							<path class="st15" d="M292.8,393.9h-23.1c-2.2,0-3.8-1.8-3.7-3.9l1-23.1c0.1-2.2,1.9-3.9,4.1-3.9h23.1c2.2,0,3.8,1.8,3.7,3.9
								l-1,23.1C296.8,392.1,295,393.9,292.8,393.9z"/>
							<path class="st15" d="M328.1,393.9H305c-2.2,0-3.8-1.8-3.7-3.9l1-23.1c0.1-2.2,1.9-3.9,4.1-3.9h23.1c2.2,0,3.8,1.8,3.7,3.9
								l-1,23.1C332.1,392.1,330.3,393.9,328.1,393.9z"/>
							<path class="st15" d="M363.4,393.9h-23.1c-2.2,0-3.8-1.8-3.7-3.9l1-23.1c0.1-2.2,1.9-3.9,4.1-3.9h23.1c2.2,0,3.8,1.8,3.7,3.9
								l-1,23.1C367.4,392.1,365.6,393.9,363.4,393.9z"/>
						</g>
					</g>
					<g>
						<path class="st12" d="M180.5,272.4c-8.5,0-15.2-9.9-15.2-22.6s6.7-22.6,15.2-22.6c8.5,0,15.2,9.9,15.2,22.6
							c0,1.3-1,2.3-2.3,2.3c-1.3,0-2.3-1-2.3-2.3c0-9.7-4.8-17.9-10.5-17.9c-5.7,0-10.5,8.2-10.5,17.9s4.8,17.9,10.5,17.9
							c1.3,0,2.3,1,2.3,2.3C182.8,271.4,181.7,272.4,180.5,272.4z"/>
						<path class="st12" d="M215.7,272.4c-8.5,0-15.2-9.9-15.2-22.6s6.7-22.6,15.2-22.6s15.2,9.9,15.2,22.6c0,1.3-1,2.3-2.3,2.3
							c-1.3,0-2.3-1-2.3-2.3c0-9.7-4.8-17.9-10.5-17.9c-5.7,0-10.5,8.2-10.5,17.9s4.8,17.9,10.5,17.9c1.3,0,2.3,1,2.3,2.3
							C218.1,271.4,217,272.4,215.7,272.4z"/>
						<path class="st12" d="M251,272.4c-8.5,0-15.2-9.9-15.2-22.6s6.7-22.6,15.2-22.6c8.5,0,15.2,9.9,15.2,22.6c0,1.3-1,2.3-2.3,2.3
							c-1.3,0-2.3-1-2.3-2.3c0-9.7-4.8-17.9-10.5-17.9c-5.7,0-10.5,8.2-10.5,17.9s4.8,17.9,10.5,17.9c1.3,0,2.3,1,2.3,2.3
							C253.4,271.4,252.3,272.4,251,272.4z"/>
						<path class="st12" d="M286.3,272.4c-8.5,0-15.2-9.9-15.2-22.6s6.7-22.6,15.2-22.6c8.5,0,15.2,9.9,15.2,22.6
							c0,1.3-1,2.3-2.3,2.3c-1.3,0-2.3-1-2.3-2.3c0-9.7-4.8-17.9-10.5-17.9c-5.7,0-10.5,8.2-10.5,17.9s4.8,17.9,10.5,17.9
							c1.3,0,2.3,1,2.3,2.3C288.6,271.4,287.6,272.4,286.3,272.4z"/>
						<path class="st12" d="M321.6,272.4c-8.5,0-15.2-9.9-15.2-22.6s6.7-22.6,15.2-22.6s15.2,9.9,15.2,22.6c0,1.3-1,2.3-2.3,2.3
							c-1.3,0-2.3-1-2.3-2.3c0-9.7-4.8-17.9-10.5-17.9c-5.7,0-10.5,8.2-10.5,17.9s4.8,17.9,10.5,17.9c1.3,0,2.3,1,2.3,2.3
							C323.9,271.4,322.9,272.4,321.6,272.4z"/>
						<path class="st12" d="M356.9,272.4c-8.5,0-15.2-9.9-15.2-22.6s6.7-22.6,15.2-22.6c8.5,0,15.2,9.9,15.2,22.6
							c0,1.3-1,2.3-2.3,2.3c-1.3,0-2.3-1-2.3-2.3c0-9.7-4.8-17.9-10.5-17.9c-5.7,0-10.5,8.2-10.5,17.9s4.8,17.9,10.5,17.9
							c1.3,0,2.3,1,2.3,2.3C359.2,271.4,358.2,272.4,356.9,272.4z"/>
					</g>
				</g>
				<path class="st14" d="M288.7,323.4c-8.2-1.6-17.3,0.3-20.6,8.9c-2.6,6.9,0.7,14.4,8,16.3c6.4,1.6,17.4-0.4,19.7-7.7
					c2.6-8.4-8-11.2-13.9-11.7c-1.8-0.2-1.8,2.6,0,2.8c2.7,0.2,5.8,0.4,8.2,1.9c5,3.1,2.9,8.2-1.3,10.6c-4.2,2.4-10.8,3-15,0.3
					c-4.6-2.9-4.7-9.4-2-13.6c3.6-5.6,10.2-6.2,16.1-5C289.7,326.5,290.5,323.8,288.7,323.4L288.7,323.4z"/>
				<g>
					<path class="st12" d="M198.6,291.2c7.8,10.4,16.5,20,26,28.8c1.3,1.2,3.3-0.8,2-2c-9.3-8.7-17.9-18.1-25.6-28.2
						C200,288.4,197.6,289.8,198.6,291.2L198.6,291.2z"/>
					<path class="st12" d="M201.5,318.8c5.9-10.5,16.2-19.4,26-26.3c1.5-1,0.1-3.5-1.4-2.4c-10.2,7.1-20.8,16.4-27,27.3
						C198.2,319,200.7,320.4,201.5,318.8L201.5,318.8z"/>
				</g>
				<g>
					<path class="st14" d="M309.9,300.2c6.1,0,12.2,0,18.2,0c1.8,0,1.8-2.8,0-2.8c-6.1,0-12.2,0-18.2,0
						C308.1,297.4,308.1,300.2,309.9,300.2L309.9,300.2z"/>
					<path class="st14" d="M309.7,305.3c3.5,0,7,0,10.6,0c1.8,0,1.8-2.8,0-2.8c-3.5,0-7,0-10.6,0
						C307.9,302.5,307.9,305.3,309.7,305.3L309.7,305.3z"/>
				</g>
				<g>
					<path class="st14" d="M200.6,371.8c5.2,0,10.4,0,15.7,0c1.8,0,1.8-2.8,0-2.8c-5.2,0-10.4,0-15.7,0
						C198.8,369,198.8,371.8,200.6,371.8L200.6,371.8z"/>
					<path class="st14" d="M200,377.8c6.8,0,13.5,0,20.3,0c1.8,0,1.8-2.8,0-2.8c-6.8,0-13.5,0-20.3,0
						C198.2,375,198.2,377.8,200,377.8L200,377.8z"/>
					<path class="st12" d="M200,384c3.4,0,6.8,0,10.2,0c1.8,0,1.8-2.8,0-2.8c-3.4,0-6.8,0-10.2,0C198.2,381.2,198.2,384,200,384
						L200,384z"/>
				</g>
			</g>
			<g>
				<g>
					<path class="st17" d="M90.2,214.8l4.7-0.2l-2.1,9c0,0-2.6-1.7-4.6-4c-0.8-1-0.7-2.4,0.2-3.2L90.2,214.8z"/>
					<polygon class="st17" points="100.4,219.4 98.3,226.8 92.8,223.6 94.9,214.6 					"/>
				</g>
				<g>
					
						<rect x="100.9" y="175.9" transform="matrix(0.9957 -9.220218e-02 9.220218e-02 0.9957 -26.8682 11.0117)" class="st12" width="9.7" height="240.8"/>
					
						<rect x="120.2" y="174.1" transform="matrix(0.9957 -9.220313e-02 9.220313e-02 0.9957 -26.6207 12.7893)" class="st12" width="9.7" height="240.8"/>
					
						<rect x="110.6" y="175" transform="matrix(0.9957 -9.220313e-02 9.220313e-02 0.9957 -26.7445 11.9005)" class="st18" width="9.7" height="240.8"/>
					<g>
						<polygon class="st15" points="107.1,158.3 98.4,159.1 89.8,176.9 118.8,174.2 						"/>
						<line class="st12" x1="98.4" y1="159.1" x2="98.4" y2="159.1"/>
					</g>
					<polygon class="st12" points="102.1,151.5 98.4,159.1 107.1,158.3 					"/>
				</g>
				<g>
					<path class="st17" d="M175.3,165.1c1,1,1.8,1.9,2.7,3c0.9,1,1.7,2,2.5,3c1.7,2,3.2,4.1,4.7,6.3c3,4.3,5.7,8.9,7.8,14
						c0.3,0.6,0.5,1.3,0.7,2l0.4,1c0.2,0.6,0.3,1.2,0.4,1.8c0.3,2.4-0.2,4.3-0.8,5.9c-1.2,3.1-2.8,5.4-4.5,7.6
						c-3.4,4.3-7.2,7.7-11.4,10.9l-3.8-4c2.9-3.8,5.9-7.8,8.1-11.7c1.1-1.9,2.1-4,2.4-5.6c0.2-0.8,0.1-1.4,0.1-1.5c0,0,0,0,0,0
						l-0.3-0.7c-0.2-0.5-0.4-1-0.7-1.5c-2-4-4.6-7.9-7.4-11.7c-1.4-1.9-2.9-3.8-4.4-5.6c-0.7-0.9-1.5-1.8-2.3-2.7l-2.3-2.6
						L175.3,165.1z"/>
					<polygon class="st17" points="167.9,219.5 172.2,228 176.4,224.4 172.9,218.4 					"/>
					<path class="st17" d="M135.8,170c-2.6,4.9-5.3,9.8-8.1,14.7c-1.4,2.4-2.8,4.8-4.2,7.2l-2.1,3.6l-0.5,0.9
						c-0.3,0.4-0.6,0.9-0.8,1.3c-0.3,0.4-0.5,0.7-0.8,1.1c-0.3,0.3-0.5,0.7-0.8,0.9c-2.1,2.4-4.3,4.3-6.4,6.2
						c-2.2,1.9-4.4,3.7-6.6,5.4c-4.5,3.5-9.1,6.7-13.8,9.8l-3.4-4.3l11.9-11.7c1.9-2,3.9-3.9,5.7-5.9c1.9-1.9,3.7-4,5.1-5.9
						c0.2-0.2,0.4-0.5,0.5-0.7c0.2-0.2,0.3-0.4,0.4-0.6c0.2-0.2,0.2-0.3,0.3-0.5l0.5-0.9l1.9-3.8c1.3-2.5,2.5-5,3.8-7.5
						c2.5-5,5.2-9.9,7.9-14.8L135.8,170z"/>
					<path class="st19" d="M163.9,136.2c-0.1,0.6,0.1,1.1,0.5,1.2c0.4,0.1,0.8-0.3,0.9-0.9c0.1-0.6-0.1-1.1-0.5-1.2
						C164.4,135.2,164,135.6,163.9,136.2z"/>
					<path class="st20" d="M163.9,137.3c0,0,0.6,3.7,1.7,5.7c-1.2,0.7-2.9-0.2-2.9-0.2L163.9,137.3z"/>
					<path class="st19" d="M165.4,132.7c-0.1,0-0.1,0-0.2-0.1c0,0-1.1-0.7-2.5-0.2c-0.2,0.1-0.4,0-0.5-0.2c-0.1-0.2,0-0.4,0.2-0.5
						c1.8-0.7,3.1,0.2,3.2,0.2c0.2,0.1,0.2,0.3,0.1,0.5C165.7,132.6,165.6,132.7,165.4,132.7z"/>
					<path class="st17" d="M143.7,138.4c1.3,5.4,2.7,15.2-0.9,18.8c0,0,1.7,5.5,11.7,5.5c11,0,5-5.5,5-5.5c-6-1.4-6.1-5.9-5.2-10.1
						L143.7,138.4z"/>
					<path class="st21" d="M141.4,159.1c-0.9-1.7-1.8-3.7,0-4.3c1.9-0.7,12.7-1.4,16.5-0.1c3.8,1.3,2.9,4.8,2.9,4.8L141.4,159.1z"/>
					<path class="st4" d="M127,410c-0.8,0-1.5-0.1-1.9-0.2c-0.1,0-0.1-0.1-0.1-0.1c0-0.1,0-0.1,0.1-0.2c0.1-0.1,2-1.4,3.1-1.2
						c0.3,0.1,0.5,0.2,0.6,0.4c0.2,0.4,0.1,0.7,0,0.8C128.5,409.9,127.8,410,127,410z M125.6,409.6c1.1,0.2,2.6,0.2,2.9-0.2
						c0,0,0.1-0.2-0.1-0.4c-0.1-0.1-0.2-0.2-0.3-0.2C127.4,408.5,126.2,409.1,125.6,409.6z"/>
					<path class="st4" d="M125.1,409.8C125.1,409.8,125.1,409.8,125.1,409.8c-0.1-0.1-0.2-0.1-0.2-0.2c0-0.1,0.1-2.2,0.9-2.9
						c0.2-0.2,0.5-0.3,0.7-0.2c0.4,0.1,0.5,0.3,0.6,0.5C127.3,407.8,125.9,409.4,125.1,409.8C125.2,409.8,125.1,409.8,125.1,409.8z
						 M126.5,406.8c-0.1,0-0.3,0-0.4,0.2c-0.5,0.5-0.7,1.7-0.8,2.3c0.7-0.6,1.6-1.8,1.5-2.3C126.8,407,126.8,406.9,126.5,406.8
						C126.5,406.8,126.5,406.8,126.5,406.8z"/>
					<path class="st4" d="M171.1,410c-0.9,0-1.8-0.1-2.3-0.2c-0.1,0-0.1-0.1-0.1-0.1c0-0.1,0-0.1,0.1-0.2c0.4-0.2,3.6-2.1,4.4-0.8
						c0.2,0.4,0.1,0.6,0,0.8C173,409.9,172.1,410,171.1,410z M169.4,409.6c1.4,0.2,3.2,0.2,3.6-0.3c0,0,0.1-0.1,0-0.4
						C172.5,408.2,170.5,409,169.4,409.6z"/>
					<path class="st4" d="M168.9,409.8C168.9,409.8,168.8,409.8,168.9,409.8c-0.1-0.1-0.2-0.1-0.2-0.2c0-0.1,0.1-2.1,1-2.8
						c0.3-0.2,0.6-0.3,1-0.3c0.5,0,0.6,0.3,0.7,0.5C171.5,407.9,169.8,409.4,168.9,409.8C168.9,409.8,168.9,409.8,168.9,409.8z
						 M170.6,406.8c-0.2,0-0.4,0.1-0.6,0.2c-0.6,0.5-0.8,1.7-0.9,2.3c0.9-0.5,2-1.8,1.9-2.3c0,0,0-0.2-0.4-0.2
						C170.6,406.8,170.6,406.8,170.6,406.8z"/>
					<polygon class="st17" points="160.8,409.6 168.2,409.6 168.2,392.6 160.9,392.6 					"/>
					<polygon class="st17" points="116.7,409.6 124.1,409.6 127.1,392.6 119.7,392.6 					"/>
					<path class="st22" d="M124.5,408.8h-8.3c-0.3,0-0.6,0.2-0.6,0.5l-1.2,6.5c-0.1,0.7,0.4,1.3,1.1,1.3c2.9,0,4.3-0.2,7.9-0.2
						c2.2,0,6.8,0.2,9.9,0.2c3,0,3.4-3,2.1-3.3c-5.7-1.2-7.9-2.9-9.8-4.6C125.4,409,125,408.8,124.5,408.8z"/>
					<path class="st22" d="M168.1,408.8h-8c-0.3,0-0.6,0.2-0.6,0.5l-1.2,6.5c-0.1,0.7,0.4,1.3,1.1,1.3c2.9,0,7.1-0.2,10.7-0.2
						c4.3,0,7.9,0.2,12.9,0.2c3,0,3.7-3,2.5-3.3c-5.8-1.3-10.5-1.4-15.6-4.5C169.3,409,168.7,408.8,168.1,408.8z"/>
					<path class="st19" d="M128.7,158.9c-6.8,1.6-14,20.4-14,20.4l14.2,9.5c0,0,5-7.3,8.5-15.5C141.2,164.6,135.7,157.3,128.7,158.9
						z"/>
					<path class="st23" d="M134.1,170.9l-5.9,17.4l0.7,0.4c0,0,2.7-4,5.5-9.3L134.1,170.9z"/>
					<path class="st19" d="M174.6,191.7c-0.1,8.2-0.5,18.4-1.8,31.1h-39.3c-0.5-6,2.2-35.5-4.8-63.9c0,0,6.7-1.4,13.1-1.7
						c5-0.2,12.3-0.4,16.7,0c5.8,0.5,11.4,2,11.4,2s3.4,3.6,4.4,20.7C174.5,183.4,174.6,187.2,174.6,191.7z"/>
					<path class="st23" d="M174.6,191.7c-2.4-4.3-6.7-13.1-6.1-18l5.8,6.3C174.5,183.4,174.6,187.2,174.6,191.7z"/>
					<path class="st19" d="M162.2,165.9c-0.6,7,15.3,23.8,15.3,23.8l12.7-10.4c0,0-5.2-9.1-11.9-15.5
						C170.8,156.7,162.9,158.1,162.2,165.9z"/>
					<g>
						<polygon class="st24" points="168.2,392.6 168.2,401.4 160.8,401.4 160.9,392.6 						"/>
						<polygon class="st24" points="119.7,392.6 127.1,392.6 125.5,401.4 118.2,401.4 						"/>
					</g>
					<path class="st17" d="M145,130.2c-1.1,7.2-2.1,11.4,0.7,16c4.2,6.9,13.6,5.8,16.8-0.9c2.9-6,4.1-16.8-2.2-21.4
						C154.1,119.3,146.1,122.9,145,130.2z"/>
					<path class="st19" d="M166.8,126.7c-3.4,1.9-7,2.2-7,2.2c-1.8,8.4-6.7,18-14.6,15.2c-3-1.1-6-8.3-6.3-14.7
						c-0.5,0.6-0.9,1.5-1.1,1.8c-0.7-4.1,0.5-7.2,0.9-8.5c2.2-6.2,3.6-2.1,6-5.8c1.5-2.5,4.3-3.8,9-3.9c-1.3,0.7-1.6,1.8,0.4,1.6
						c2-0.2,10.4-0.6,15.3,2.7c-3.3,0.7-1.3,6,3.1,3.2C170.8,123.1,168.8,125.5,166.8,126.7z"/>
					<path class="st17" d="M154.1,134.6c0,1.9,0.8,3.8,1.8,5.1c1.5,1.9,3.2,1,3.6-1.2c0.4-1.9,0-5.2-1.9-6.4
						C155.7,131,154.1,132.4,154.1,134.6z"/>
					<path class="st19" d="M145.1,117.6c-1-0.1-3.4-0.5-4.9-3C140.2,114.6,140.1,120.5,145.1,117.6z"/>
					<path class="st21" d="M158.9,222.8c0,0-6.2,56.1-9.9,77.2c-4.1,23-20,99.8-20,99.8h-13.5c0,0,9.6-74.9,11.5-97.7
						c2.1-24.8,6.5-79.3,6.5-79.3H158.9z"/>
					<path class="st14" d="M130.8,394.8c0.1,0-1.2,5.2-1.2,5.2h-15.1l0.1-4.6L130.8,394.8z"/>
					<path class="st25" d="M154.4,242.8c-9.6,1.9-7.2,37.8-5.3,56.3c2.3-13.1,5.4-38.2,7.5-56.1
						C155.9,242.7,155.2,242.6,154.4,242.8z"/>
					<path class="st21" d="M172.8,222.8c0,0,3.1,54.9,3.2,77.3c0.1,23.3-5.1,99.6-5.1,99.6h-12.4c0,0-3.3-74.9-4.8-97.8
						c-1.6-24.9-6.7-79.1-6.7-79.1H172.8z"/>
					<path class="st17" d="M175.8,215.7l-3.5,0.3c-1.2,0.1-2,1.3-1.7,2.5l1.4,4.8c0.5,1.7,2.6,2.4,4,1.3c1.4-1.1,3.2-3.8,3.7-6.2
						L175.8,215.7z"/>
					<path class="st25" d="M167.9,390.8C167.9,390.8,167.9,390.8,167.9,390.8c-0.1,0-0.1-0.1-0.1-0.1c1.4-21.1,4.6-72.2,4.5-90.5
						c-0.1-18.7-2.3-60.7-3-73.1c0-0.1,0-0.1,0.1-0.1c0.1,0,0.1,0,0.1,0.1c0.7,12.4,2.9,54.4,3,73.1c0.1,18.3-3.1,69.4-4.5,90.5
						C168,390.7,168,390.8,167.9,390.8z"/>
					<path class="st14" d="M173.1,394.8c0.1,0-0.5,5.2-0.5,5.2h-15.1l-0.6-4.6L173.1,394.8z"/>
				</g>
			</g>
		</g>
	</g>
</g>
<g id="Designed_by_Freepik">
</g>
</svg>
