<?xml version="1.0" encoding="utf-8"?>
<!-- Generator: Adobe Illustrator 24.0.1, SVG Export Plug-In . SVG Version: 6.00 Build 0)  -->
<svg version="1.1" id="Layer_1" xmlns="http://www.w3.org/2000/svg" xmlns:xlink="http://www.w3.org/1999/xlink" x="0px" y="0px"
	 viewBox="0 0 366.4 274.4" style="enable-background:new 0 0 366.4 274.4;" xml:space="preserve">
<style type="text/css">
	.st0{fill:#F5F5F5;}
	.st1{fill:#27DEBF;}
	.st2{opacity:0.5;enable-background:new    ;}
	.st3{opacity:0.23;enable-background:new    ;}
	.st4{opacity:0.38;enable-background:new    ;}
	.st5{opacity:0.4;enable-background:new    ;}
	.st6{opacity:0.2;enable-background:new    ;}
	.st7{opacity:0.3;enable-background:new    ;}
	.st8{opacity:0.1;enable-background:new    ;}
	.st9{opacity:0.45;enable-background:new    ;}
	.st10{opacity:0.7;}
	.st11{fill:#FFFFFF;}
	.st12{opacity:0.7;fill:#FFFFFF;enable-background:new    ;}
	.st13{fill:#E0E0E0;}
	.st14{opacity:0.65;fill:#FFFFFF;enable-background:new    ;}
	.st15{fill:#455A64;}
</style>
<g id="Floor">
	<ellipse id="Floor_7_" class="st0" cx="182.7" cy="156.5" rx="173.9" ry="100.3"/>
</g>
<g id="Box_1_">
	<g id="Box_2_">
		<g id="XMLID_820_">
			<polygon id="XMLID_848_" class="st1" points="262.1,183.8 188.3,226.4 105.3,178.4 179,135.8 			"/>
			<polygon id="XMLID_846_" class="st2" points="262.1,183.8 188.3,226.4 105.3,178.4 179,135.8 			"/>
			<polygon id="XMLID_845_" class="st1" points="179,78.1 179,135.8 105.3,178.4 105.3,120.6 			"/>
			<polygon id="XMLID_844_" class="st3" points="179,78.1 179,135.8 105.3,178.4 105.3,120.6 			"/>
			<polygon id="XMLID_843_" class="st1" points="188.3,168.7 188.3,226.4 105.3,178.4 105.3,120.6 			"/>
			<polygon id="XMLID_842_" class="st4" points="188.3,168.7 188.3,226.4 105.3,178.4 105.3,120.6 			"/>
			<polygon id="XMLID_841_" class="st1" points="262.1,126.1 262.1,183.8 179,135.8 179,78.1 			"/>
			<polygon id="XMLID_840_" class="st5" points="262.1,126.1 262.1,183.8 179,135.8 179,78.1 			"/>
			<polygon id="XMLID_839_" class="st1" points="262.1,183.8 262.1,126.1 188.3,168.7 188.3,226.4 			"/>
			<polygon id="XMLID_838_" class="st3" points="262.1,183.8 262.1,126.1 188.3,168.7 188.3,226.4 			"/>
			<polygon id="XMLID_830_" class="st1" points="179,78.1 179.1,46.1 262,94.2 262.1,126.1 			"/>
			<polygon id="XMLID_829_" class="st6" points="179,78.1 179.1,46.1 262,94.2 262.1,126.1 			"/>
			<polygon id="XMLID_828_" class="st1" points="188.3,168.7 195.2,140.7 268.3,98.5 262.1,126.1 			"/>
			<polygon id="XMLID_827_" class="st7" points="188.3,168.7 195.2,140.7 268.3,98.5 262.1,126.1 			"/>
			<polygon id="XMLID_825_" class="st1" points="105.3,120.6 96.5,91.6 170.2,49.1 179,78.1 			"/>
			<polygon id="XMLID_824_" class="st8" points="105.3,120.6 96.5,91.6 170.2,49.1 179,78.1 			"/>
			<polygon id="XMLID_823_" class="st1" points="105.3,120.6 87.9,96.7 171,144.7 188.3,168.7 			"/>
			<polygon id="XMLID_821_" class="st9" points="105.3,120.6 87.9,96.7 171,144.7 188.3,168.7 			"/>
		</g>
		<g id="XMLID_809_" class="st10">
			<g id="XMLID_815_">
				<g id="XMLID_818_">
					<path id="XMLID_819_" class="st11" d="M210,209.3c-0.3,0-0.5-0.2-0.5-0.5v-10.2c0-0.2,0.2-0.5,0.5-0.5s0.5,0.2,0.5,0.5v10.2
						C210.5,209.1,210.3,209.3,210,209.3z"/>
				</g>
				<g id="XMLID_816_">
					<path id="XMLID_817_" class="st11" d="M208.7,202.2c-0.1,0-0.1,0-0.2,0c-0.2-0.1-0.3-0.4-0.2-0.6l1.6-3.7l1.8,2.1
						c0.2,0.2,0.1,0.5,0,0.6c-0.2,0.2-0.5,0.1-0.6,0l-0.9-1l-1,2.4C209.1,202.1,208.9,202.2,208.7,202.2z"/>
				</g>
			</g>
			<g id="XMLID_810_">
				<g id="XMLID_813_">
					<path id="XMLID_814_" class="st11" d="M214.2,206.9c-0.3,0-0.5-0.2-0.5-0.5v-10.2c0-0.2,0.2-0.5,0.5-0.5s0.5,0.2,0.5,0.5v10.2
						C214.7,206.7,214.5,206.9,214.2,206.9z"/>
				</g>
				<g id="XMLID_811_">
					<path id="XMLID_812_" class="st11" d="M212.9,199.8c-0.1,0-0.1,0-0.2,0c-0.2-0.1-0.3-0.4-0.2-0.6l1.6-3.7l1.8,2.1
						c0.2,0.2,0.1,0.5,0,0.6c-0.2,0.2-0.5,0.1-0.6,0l-0.9-1l-1,2.4C213.2,199.7,213.1,199.8,212.9,199.8z"/>
				</g>
			</g>
		</g>
		<g id="XMLID_802_" class="st10">
			<g id="XMLID_807_">
				<path id="XMLID_808_" class="st11" d="M198,216.2c-0.2,0-0.3,0-0.5-0.1c-0.3-0.2-0.5-0.6-0.5-1.1v-1.2c0-0.2,0.2-0.5,0.5-0.5
					s0.5,0.2,0.5,0.5v1.2c0,0.2,0.1,0.3,0.1,0.3s0.1,0,0.3-0.1c0.4-0.2,0.8-1.1,0.8-2V208c0-0.2,0.2-0.5,0.5-0.5s0.5,0.2,0.5,0.5
					v5.2c0,1.2-0.6,2.4-1.3,2.8C198.4,216.1,198.2,216.2,198,216.2z"/>
			</g>
			<g id="XMLID_803_">
				<path id="XMLID_804_" class="st11" d="M193.2,212v-0.8c0-3.7,2.6-8.2,5.8-10c1.6-0.9,3.2-1.1,4.4-0.4s1.9,2.1,1.9,4v0.3
					L193.2,212z M201.7,201.2c-0.7,0-1.5,0.2-2.3,0.7c-2.7,1.6-5,5.2-5.3,8.4l10.2-5.9c-0.1-1.4-0.5-2.5-1.4-3
					C202.6,201.3,202.1,201.2,201.7,201.2z"/>
			</g>
		</g>
		<polygon class="st12" points="87.9,96.7 171,144.7 188.3,168.7 170.1,145.6 		"/>
		<polygon class="st12" points="262.1,126.1 188.3,168.7 188.3,226.4 189.7,169.9 		"/>
	</g>
</g>
<g id="Moth_1_">
	<g id="Moth_2_">
		<g>
			<path class="st13" d="M152.8,110c7.6-1.1,14.6-6,19-12.2c2.1-2.9,3.6-6.1,4.5-9.5c0.8-3.1,1.3-6.7,0.5-9.9
				c-1.4-5.5-6.5-8.7-11.8-9.4c-2.7-0.3-5.5-0.1-8.1,0.8c-2.8,1-5,2.7-6.7,5c-0.9,1.2-1.8,2.8-1.8,4.3c0,1.4,0.9,2.3,2.2,2.5
				c1.6,0.3,3.2-0.4,4.6-1.2c1.7-0.9,3.1-2.2,4.3-3.6c2.4-3,4.5-6.7,5.5-10.5c0.9-3.2,0.7-6.8,0-10.1s-2.1-6.7-4.5-9.2
				c-2.6-2.6-6.2-3.8-9.7-4.3c-3.6-0.5-7.3-0.1-10.7,1c-1.5,0.5-3,1.2-4.1,2.3c-0.9,0.8-1.8,2.1-1.5,3.4c0.4,1.4,2.2,1.9,3.5,1.7
				c1.9-0.2,3.7-1.4,5-2.7c1.5-1.4,2.8-3.2,3.8-5c0.7-1.3,1.2-2.8,1.1-4.3c-0.1-6.3-7.1-10.4-12.6-11.6c-1.5-0.3-3-0.4-4.5-0.3
				c-0.5,0-0.2,0.8,0.2,0.8c2.9-0.2,5.9,0.6,8.4,1.9c2.5,1.2,4.8,3.1,6.2,5.5c1.4,2.5,1.2,5.3-0.2,7.7c-1,1.7-2.2,3.3-3.6,4.6
				c-1.2,1.1-3,2.3-4.7,2.2c-0.5,0-1.1-0.3-1.3-0.8c-0.2-0.7,0.3-1.4,0.6-1.8c0.8-1,2-1.6,3.2-2.1c2.9-1.3,6.3-1.7,9.5-1.6
				c3.3,0.2,6.7,1,9.3,3c2.5,1.9,4,4.8,4.9,7.7c0.9,3,1.3,6.4,0.9,9.5c-0.4,3.2-2,6.3-3.6,9c-1.9,3.1-4.2,6-7.7,7.2
				c-0.9,0.3-2.7,0.8-3-0.5c-0.3-1.2,0.6-2.8,1.3-3.8c1.4-2.2,3.4-3.9,5.8-4.9c2.3-0.9,4.8-1.3,7.3-1.1c4.7,0.4,9.5,2.8,11.1,7.5
				c1,2.7,0.8,5.8,0.3,8.6c-0.6,3.1-1.7,6.1-3.3,8.8c-3.4,5.9-8.7,10.3-14.9,12.9c-1.5,0.6-3,1.2-4.6,1.7
				C152.6,109.6,152.7,110,152.8,110L152.8,110z"/>
		</g>
		<g>
			<path class="st1" d="M121,23.2c-4.1-0.3-9.5,2.9-7.6,5.2c2,2.3,7.2-1.4,7.2-1.4s-0.5,4.7,1.2,5.2s4-3.9,2.3-6.7
				c0,0,2.6,1.1,5-0.6c2.4-1.7-0.1-3.5-3.6-3.2c0,0,2.4-8-2.5-6.5C120.7,15.8,119.8,18.7,121,23.2z"/>
			<path class="st14" d="M121,23.2c-4.1-0.3-9.5,2.9-7.6,5.2c2,2.3,7.2-1.4,7.2-1.4s-0.5,4.7,1.2,5.2s4-3.9,2.3-6.7
				c0,0,2.6,1.1,5-0.6c2.4-1.7-0.1-3.5-3.6-3.2c0,0,2.4-8-2.5-6.5C120.7,15.8,119.8,18.7,121,23.2z"/>
			<path class="st15" d="M124.8,24.9c-0.2-0.2-0.5-0.4-0.7-0.6c-0.4-0.3-0.7-0.5-1.1-0.8c-0.3-0.2-0.7-0.5-1.1-0.7
				c-0.2-0.1-0.4-0.2-0.7-0.3c-0.3-0.2-0.6-0.2-1-0.2s-0.7,0.4-0.4,0.8c0.3,0.4,0.7,0.5,1.1,0.7c0.2,0.1,0.4,0.2,0.5,0.3
				c0.4,0.2,0.7,0.5,1,0.7c0.3,0.3,0.7,0.5,1,0.7c0.5,0.4,1.1,0.8,1.7,1c0.1,0,0.1,0,0.2,0C125.8,26.1,125.1,25.2,124.8,24.9z"/>
		</g>
	</g>
</g>
</svg>
