<?xml version="1.0" encoding="utf-8"?>
<!-- Generator: Adobe Illustrator 24.0.1, SVG Export Plug-In . SVG Version: 6.00 Build 0)  -->
<svg version="1.1" xmlns="http://www.w3.org/2000/svg" xmlns:xlink="http://www.w3.org/1999/xlink" x="0px" y="0px"
	 viewBox="0 0 500 500" style="enable-background:new 0 0 500 500;" xml:space="preserve">
<style type="text/css">
	.st0{fill:#EBEBEB;}
	.st1{fill:#E0E0E0;}
	.st2{fill:#FAFAFA;}
	.st3{fill:#F5F5F5;}
	.st4{display:none;}
	.st5{display:inline;fill:#EBEBEB;}
	.st6{fill:#263238;}
	.st7{fill:#FFBE9D;}
	.st8{fill:#EB996E;}
	.st9{fill:#455A64;}
	.st10{fill:#E8505B;}
	.st11{opacity:0.6;}
	.st12{fill:#FFFFFF;}
	.st13{opacity:0.3;}
	.st14{opacity:0.5;}
	.st15{opacity:0.4;}
</style>
<g id="Background_Complete">
	<g>
		<g>
			<rect x="167" y="378.8" class="st0" width="104.2" height="80.3"/>
			<g>
				<path class="st1" d="M245.1,458.5c-0.1,0-0.3-17.9-0.3-40c0-22.1,0.1-40,0.3-40s0.3,17.9,0.3,40
					C245.3,440.6,245.2,458.5,245.1,458.5z"/>
			</g>
			<rect x="254.3" y="440.8" class="st2" width="8" height="9"/>
			<rect x="198.8" y="379" class="st1" width="11.8" height="17.1"/>
			<rect x="198.8" y="441.7" class="st1" width="11.8" height="17.1"/>
		</g>
	</g>
	<g>
		<g>
			<rect x="328.8" y="358.6" class="st0" width="131.3" height="101.3"/>
			<g>
				<path class="st1" d="M427.2,459.2c-0.1,0-0.3-22.6-0.3-50.4c0-27.9,0.1-50.4,0.3-50.4s0.3,22.6,0.3,50.4
					C427.5,436.6,427.4,459.2,427.2,459.2z"/>
			</g>
			<rect x="438.9" y="436.8" class="st2" width="10.1" height="11.4"/>
			<rect x="368.9" y="358.9" class="st1" width="14.9" height="21.6"/>
			<rect x="368.9" y="438" class="st1" width="14.9" height="21.6"/>
		</g>
	</g>
	<g>
		<g>
			<g>
				<g>
					<g>
						<path class="st0" d="M81.5,361.6c5.3-2.7,11.6-3.1,17.5-2.1c3.2,0.5,6.5,1.5,8.6,3.9c2.2,2.4,2.6,6.6,0.1,8.6
							c-1.5,1.2-3.5,1.4-5.4,1.4c-4.6-0.1-9.7-0.9-13.4,1.9c-2.1,1.6-3.5,4.2-6,5c-2.5,0.8-5.2-0.7-6.5-2.9c-1.3-2.2-1.3-5-0.7-7.5
							C75.5,369.8,76.1,364.4,81.5,361.6z"/>
					</g>
				</g>
			</g>
			<g>
				<g>
					<g>
						<path class="st0" d="M69.3,338.1c3.2,4.6,9.6,3.1,12.5,0.3c2.9-2.8,4.2-6.9,5.3-10.9c2.6-8.9,5.2-18.3,3.3-27.4
							c-0.6-2.7-1.6-5.4-3.5-7.5c-1.9-2-4.9-3.2-7.5-2.5c-3.2,0.8-5.2,4-6.6,6.9c-4.2,8.7-6.4,18.4-6.5,28.1
							C66.2,329.6,66.7,334.3,69.3,338.1"/>
					</g>
				</g>
			</g>
			<g>
				<g>
					<g>
						<path class="st0" d="M60.4,344.7c3.5-4.2,4.2-10.3,2.6-15.5c-1.6-5.2-5.1-9.7-9.2-13.4c-4.8-4.3-10.4-7.6-16.5-9.7
							c-2.4-0.8-4.9-1.5-7.4-1.3c-2.5,0.2-5,1.5-6.2,3.8c-1.7,3.3-0.1,7.3,1.7,10.6c3.2,5.8,6.8,11.3,10.8,16.5
							c3.2,4.2,7,8.3,11.9,10.2c4.9,1.9,10.1,1.7,12.7-1.8"/>
					</g>
				</g>
			</g>
			<g>
				<g>
					<g>
						<g>
							<path class="st1" d="M69.1,408.1c0.1,0,0.2-0.7,0.3-2.1c0.1-1.5,0.3-3.5,0.6-5.8c0.3-2.4,0.6-5.3,1.3-8.4
								c0.7-3.1,1.7-6.5,3.1-10c1.4-3.4,3.1-6.5,5.1-9c2-2.5,4.3-4.3,6.4-5.3c2.2-1.1,4.1-1.5,5.4-1.7c1.3-0.1,2.1-0.2,2.1-0.3
								c0-0.1-0.8-0.1-2.1,0c-1.4,0.1-3.4,0.4-5.6,1.5c-2.3,1-4.7,2.8-6.8,5.4c-2.1,2.5-3.9,5.7-5.3,9.2c-1.4,3.5-2.4,6.9-3,10.1
								c-0.6,3.2-0.9,6.1-1.1,8.6c-0.2,2.4-0.3,4.4-0.3,5.8C69,407.3,69,408.1,69.1,408.1z"/>
						</g>
					</g>
				</g>
			</g>
			<g>
				<g>
					<g>
						<g>
							<path class="st1" d="M69.5,403.7c0,0,0-0.3,0.1-1c0-0.7,0-1.7,0-2.8c0-2.4,0-5.9,0.1-10.3c0.2-8.7,1-18,2.4-31.2
								c1.4-12.4,3.2-26.8,5.1-36.2c0.4-2.1,0.8-4,1.2-5.7c0.4-1.7,0.7-3.1,1-4.3c0.3-1.1,0.5-2,0.7-2.7c0.1-0.6,0.2-1,0.2-1
								c0,0-0.1,0.3-0.3,0.9c-0.2,0.7-0.5,1.6-0.8,2.7c-0.4,1.2-0.7,2.6-1.2,4.3c-0.4,1.7-0.9,3.6-1.4,5.7
								c-1.9,8.5-3.9,20.4-5.4,33.6c-1.4,13.2-2.1,25.2-2.2,33.9c-0.1,4.4,0,7.9,0.2,10.3c0.1,1.1,0.1,2.1,0.2,2.8
								C69.4,403.3,69.4,403.7,69.5,403.7z"/>
						</g>
					</g>
				</g>
			</g>
			<g>
				<g>
					<g>
						<g>
							<path class="st1" d="M69.5,380.5c0.1,0,0.1-1,0-2.9c-0.1-1.9-0.4-4.6-0.9-7.9c-0.6-3.3-1.3-7.3-2.6-11.5
								c-0.5-2-1.8-6.6-4.8-13.7c-4-9.5-9.4-17.3-14.2-22.1c-1.1-1.3-2.3-2.2-3.3-3.1c-0.5-0.4-1-0.9-1.4-1.2
								c-0.5-0.3-0.9-0.6-1.3-0.9c-1.6-1.1-2.4-1.6-2.5-1.6c-0.1,0.2,3.5,2.3,8.1,7.2c4.6,4.9,9.8,12.6,13.8,22
								c2.2,5.1,3.8,9.7,4.9,13.5c1.3,4.2,2.1,8.1,2.7,11.4c0.6,3.3,1,6,1.2,7.8C69.3,379.5,69.5,380.5,69.5,380.5z"/>
						</g>
					</g>
				</g>
			</g>
		</g>
		<g>
			<g>
				<g>
					<polygon class="st0" points="45.6,417.9 47.9,449.7 88.8,449.7 91.1,417.9 					"/>
				</g>
			</g>
		</g>
		<g>
			<g>
				<g>
					<rect x="41.6" y="405.3" class="st0" width="54.4" height="12.5"/>
				</g>
			</g>
		</g>
		<g>
			<g>
				<g>
					<polygon class="st1" points="41.6,448.5 41.6,451.9 44.2,451.9 95.1,451.9 95.1,448.5 					"/>
				</g>
			</g>
		</g>
		<g>
			<g>
				<g>
					<polygon class="st1" points="46.7,457.7 44.2,451.6 93.1,451.6 90.2,457.7 					"/>
				</g>
			</g>
		</g>
		<g>
			<g>
				<g>
					<g>
						<path class="st3" d="M90.3,428.3c0,0-0.1,0.1-0.2,0.3c-0.2,0.2-0.4,0.5-0.6,0.8c-0.6,0.7-1.4,1.8-2.4,3l-0.1,0.1l-0.1-0.1
							c-1.5-2.1-3.5-4.8-5.9-8.1h0.3c-1.7,2.5-3.7,5.2-5.8,8.2l-0.2,0.3l-0.2-0.2c-2.1-2.5-4.4-5.3-6.8-8.1l0.4,0
							c-0.1,0.1-0.2,0.3-0.4,0.5c-2.1,2.7-4.2,5.2-6.1,7.7l-0.2,0.3l-0.2-0.3c-2.1-2.9-4-5.7-5.8-8.2l0.3,0c-2.8,3.2-5.2,6-7.1,8.1
							l-0.1,0.1l-0.1-0.2c-0.9-1.6-1.7-2.8-2.2-3.7c-0.2-0.4-0.4-0.7-0.6-1c-0.1-0.2-0.2-0.3-0.2-0.4c0,0,0.1,0.1,0.2,0.3
							c0.2,0.3,0.4,0.6,0.6,1c0.6,0.9,1.4,2.1,2.3,3.7l-0.2,0c1.8-2.1,4.2-4.9,7-8.2l0.2-0.2l0.2,0.2c1.8,2.5,3.7,5.2,5.8,8.1
							l-0.4,0c1.9-2.4,4-5,6.1-7.7c0.1-0.2,0.3-0.3,0.4-0.5l0.2-0.2l0.2,0.2c2.4,2.9,4.7,5.6,6.8,8.1l-0.4,0
							c2.1-2.9,4.1-5.7,5.8-8.1l0.2-0.2l0.2,0.2c2.3,3.3,4.3,6.1,5.7,8.2l-0.2,0c1-1.3,1.9-2.2,2.5-3c0.3-0.3,0.5-0.6,0.7-0.8
							C90.2,428.3,90.3,428.3,90.3,428.3z"/>
					</g>
				</g>
			</g>
		</g>
		<g>
			<g>
				<g>
					<g>
						<path class="st3" d="M91.7,417.7c0,0.1-10.2,0.3-22.9,0.3c-12.6,0-22.9-0.1-22.9-0.3c0-0.1,10.2-0.3,22.9-0.3
							C81.4,417.4,91.7,417.5,91.7,417.7z"/>
					</g>
				</g>
			</g>
		</g>
	</g>
	<g>
		<g>
			<g>
				<g>
					
						<rect x="370.2" y="56.8" transform="matrix(1 -5.357797e-03 5.357797e-03 1 -0.4109 2.0068)" class="st1" width="8.4" height="41.7"/>
				</g>
			</g>
		</g>
		<g>
			<g>
				<g>
					<g>
						
							<rect x="297.5" y="57" transform="matrix(1 -5.354392e-03 5.354392e-03 1 -0.3623 1.652)" class="st0" width="21.7" height="23"/>
					</g>
				</g>
			</g>
			<g>
				<g>
					<g>
						
							<rect x="319.1" y="56.9" transform="matrix(1 -5.354417e-03 5.354417e-03 1 -0.3614 1.7677)" class="st3" width="21.7" height="23"/>
					</g>
				</g>
			</g>
			<g>
				<g>
					<g>
						<g>
							<path class="st1" d="M297.5,63.4c14.4,0.1,28.9,0,43.3-0.2c0.3,0,0.3-0.5,0-0.5c-14.4-0.1-28.9,0-43.3,0.3
								C297.2,63,297.2,63.4,297.5,63.4L297.5,63.4z"/>
						</g>
					</g>
				</g>
			</g>
		</g>
		<g>
			<g>
				<g>
					<g>
						
							<rect x="284" y="79.7" transform="matrix(1 -5.359059e-03 5.359059e-03 1 -0.4729 1.6287)" class="st0" width="39.4" height="18.8"/>
					</g>
				</g>
			</g>
			<g>
				<g>
					<g>
						
							<rect x="323.2" y="79.5" transform="matrix(1 -5.356508e-03 5.356508e-03 1 -0.471 1.8381)" class="st3" width="39.4" height="18.8"/>
					</g>
				</g>
			</g>
			<g>
				<g>
					<g>
						<g>
							<path class="st1" d="M283.9,85c26.2,0.3,52.5,0,78.7-0.4c0.3,0,0.3-0.5,0-0.5c-26.2-0.1-52.5-0.1-78.7,0.5
								C283.7,84.6,283.7,85,283.9,85L283.9,85z"/>
						</g>
					</g>
				</g>
			</g>
		</g>
		<g>
			<g>
				<g>
					<rect x="269.2" y="98.5" class="st1" width="152.8" height="6.7"/>
				</g>
			</g>
			<g>
				<g>
					<rect x="294.2" y="101.8" class="st1" width="6.2" height="22.9"/>
				</g>
			</g>
			<g>
				<g>
					<rect x="386.8" y="101.8" class="st1" width="6.2" height="22.9"/>
				</g>
			</g>
		</g>
		<g>
			<g>
				<g>
					
						<rect x="378.4" y="41.3" transform="matrix(1 -5.357791e-03 5.357791e-03 1 -0.3694 2.0507)" class="st0" width="8.4" height="57.4"/>
				</g>
			</g>
		</g>
		<g>
			<g>
				<g>
					<g>
						
							<rect x="386.8" y="52" transform="matrix(1 -5.360371e-03 5.360371e-03 1 -0.3976 2.1093)" class="st3" width="13" height="46.5"/>
					</g>
				</g>
			</g>
			<g>
				<g>
					<g>
						<path class="st1" d="M399.6,60.9c0,0.1-2.9,0.2-6.5,0.2c-3.6,0-6.5-0.1-6.5-0.2c0-0.1,2.9-0.2,6.5-0.2
							C396.7,60.7,399.6,60.8,399.6,60.9z"/>
					</g>
				</g>
			</g>
			<g>
				<g>
					<g>
						<path class="st1" d="M399.6,58.9c0,0.1-2.9,0.2-6.5,0.2c-3.6,0-6.5-0.1-6.5-0.2c0-0.1,2.9-0.2,6.5-0.2
							C396.7,58.7,399.6,58.8,399.6,58.9z"/>
					</g>
				</g>
			</g>
			<g>
				<g>
					<g>
						<path class="st1" d="M399.6,91.4c0,0.1-2.9,0.2-6.5,0.2c-3.6,0-6.5-0.1-6.5-0.2c0-0.1,2.9-0.2,6.5-0.2
							C396.7,91.2,399.6,91.3,399.6,91.4z"/>
					</g>
				</g>
			</g>
			<g>
				<g>
					<g>
						<path class="st1" d="M399.6,89.5c0,0.1-2.9,0.2-6.5,0.2c-3.6,0-6.5-0.1-6.5-0.2c0-0.1,2.9-0.2,6.5-0.2
							C396.7,89.3,399.6,89.4,399.6,89.5z"/>
					</g>
				</g>
			</g>
			<g>
				<g>
					<g>
						<path class="st1" d="M393.3,85.2c-0.1,0-0.2-4.7-0.2-10.5c0-5.8,0.1-10.5,0.2-10.5s0.2,4.7,0.2,10.5
							C393.5,80.5,393.4,85.2,393.3,85.2z"/>
					</g>
				</g>
			</g>
		</g>
		<g>
			<g>
				<g>
					<rect x="399.7" y="63.4" class="st0" width="14.2" height="35.1"/>
				</g>
			</g>
		</g>
		<g>
			<g>
				<circle class="st1" cx="382.3" cy="51.1" r="2.4"/>
			</g>
		</g>
		<g>
			<g>
				<rect x="381.5" y="57.7" class="st1" width="1.5" height="34.1"/>
			</g>
		</g>
	</g>
</g>
<g id="Background_Simple" class="st4">
	<path class="st5" d="M415.7,110.9l-2.1-3.4c-17.9-29.1-50.1-46.6-84.2-44.5c-4.4,0.3-8.7,0.9-13,1.8c-31,6.5-57.9,29.7-69,59.3
		c-6.6,17.4-8.4,37.5-20.9,51.3c-16.2,18-43.7,18.5-67.9,17.8c-24.2-0.7-51.8-0.1-67.9,17.9c-10.1,11.3-13.3,27.4-12.5,42.5
		c2.2,40.1,30.4,75.9,66.4,93.8c36,17.8,78.3,19.4,117.7,11.6c55.2-11,107.6-41.1,139.2-87.7C433,224.6,441,161.2,415.7,110.9z"/>
</g>
<g id="Floor">
	<g>
		<path class="st6" d="M464.7,459.4c0,0.1-96.1,0.3-214.6,0.3c-118.6,0-214.7-0.1-214.7-0.3c0-0.1,96.1-0.3,214.7-0.3
			C368.5,459.1,464.7,459.2,464.7,459.4z"/>
	</g>
</g>
<g id="Character">
	<g>
		<g>
			<path class="st6" d="M149.2,92.4c4.7,5.7,7.3,13.1,7.2,20.5c0,4.2-0.8,8.9,1.6,12.3c1.9,2.6,5.3,3.9,6.8,6.7
				c1.8,3.4,0.3,7.7,1.4,11.4c1.6,5.2,7.7,7.4,11.3,11.5c3.1,3.5,4.3,8.7,3,13.3c-1.3,4.6-4.9,8.4-9.4,9.9c-2.4,0.8-5.1,1-7.4-0.1
				c-2.5-1.2-4-3.7-5.2-6.2c-2.4-4.8-23.6-30.9-24.8-36.1"/>
			<path class="st6" d="M133.8,86.2c-8.7-1.4-17,4.4-20.6,12.3c-3.6,8-3.7,17-4,25.8c-0.3,8.8-0.9,17.9-5.4,25.5
				c-2.8,4.8-7.2,9-7.9,14.5c-0.6,4.9,1.9,9.9,1.1,14.8c-0.7,4.3-4,8-3.9,12.3c0.2,5.2,5.5,9.1,10.7,9.3c5.2,0.1,10.1-2.6,14.2-5.8
				c6.6-5.3,12-12.1,15.6-19.8"/>
		</g>
		<g>
			<g>
				<g>
					<g>
						<g>
							<path class="st7" d="M119.6,106.9c-1.1-9.1,5.5-17.5,14.7-18.4c8.7-0.8,16.5,5.7,17.8,14.4c1.1,7.6,2.1,15.3,2.1,18.1
								c-0.1,8.4-5,11.7-7,12.7c-0.5,0.2-1.7,0.5-2.2,0.6l0,0c0,0-0.1,0,0,0.1l1.9,9.7c0.8,6.3-2.7,12-9,12.9
								c-6.3,0.9-11.3-3.9-12.3-10.3L119.6,106.9z"/>
						</g>
						<g>
							<g>
								<g>
									<g>
										<g>
											<g>
												<path class="st6" d="M150.4,106.5c-0.1,0.2-1.2-0.4-2.7-0.2c-1.4,0.2-2.4,1.1-2.5,0.9c-0.1-0.1,0-0.4,0.4-0.8
													c0.4-0.4,1.1-0.8,2-1c0.9-0.1,1.7,0.1,2.2,0.4C150.3,106.2,150.5,106.4,150.4,106.5z"/>
											</g>
										</g>
									</g>
								</g>
							</g>
						</g>
						<g>
							<g>
								<g>
									<g>
										<g>
											<g>
												<path class="st6" d="M137.7,109.6c-0.1,0.2-1.3-0.4-2.7-0.2c-1.4,0.2-2.4,1.1-2.5,0.9c-0.1-0.1,0-0.4,0.4-0.8
													c0.4-0.4,1.1-0.8,2-1c0.9-0.1,1.7,0.1,2.2,0.4C137.6,109.2,137.8,109.5,137.7,109.6z"/>
											</g>
										</g>
									</g>
								</g>
							</g>
						</g>
						<g>
							<g>
								<g>
									<g>
										<g>
											<path class="st6" d="M142.9,117.2c0-0.1,0.8-0.4,2.3-0.8c0.4-0.1,0.7-0.2,0.7-0.5c0-0.3-0.2-0.6-0.4-1
												c-0.5-0.8-1-1.7-1.5-2.6c-2.1-3.7-3.6-6.8-3.5-6.9c0.2-0.1,1.9,2.9,4,6.6c0.5,0.9,1,1.8,1.4,2.6c0.2,0.4,0.5,0.8,0.4,1.4
												c-0.1,0.3-0.3,0.5-0.5,0.6c-0.2,0.1-0.4,0.1-0.6,0.2C143.8,117.2,142.9,117.3,142.9,117.2z"/>
										</g>
									</g>
								</g>
							</g>
						</g>
						<g>
							<g>
								<g>
									<g>
										<path class="st8" d="M144.9,134.2c0,0-5.4,1.3-12.9-1.9c0,0,3.2,7,13.4,4.5L144.9,134.2z"/>
									</g>
								</g>
							</g>
						</g>
						<g>
							<g>
								<g>
									<g>
										<path class="st6" d="M137,105.9c-0.1,0.4-1.5,0.4-3.2,0.9c-1.7,0.4-2.9,1.1-3.2,0.8c-0.1-0.2,0.1-0.6,0.5-1
											c0.5-0.5,1.3-0.9,2.3-1.2c1-0.3,1.9-0.2,2.6-0.1C136.7,105.4,137,105.7,137,105.9z"/>
									</g>
								</g>
							</g>
						</g>
						<g>
							<g>
								<g>
									<g>
										<path class="st6" d="M149.2,103.4c-0.2,0.4-1.2,0.2-2.4,0.3c-1.2,0.1-2.1,0.5-2.4,0.2c-0.1-0.1,0-0.5,0.4-0.9
											c0.4-0.4,1.1-0.7,1.9-0.8c0.8-0.1,1.6,0.1,2,0.4C149.1,102.9,149.3,103.2,149.2,103.4z"/>
									</g>
								</g>
							</g>
						</g>
					</g>
				</g>
				<g>
					<g>
						<g>
							<g>
								<g>
									<g>
										<path class="st6" d="M134.6,111.4c0.1,0.6,0.7,1,1.3,1c0.6-0.1,1.1-0.7,1-1.3c-0.1-0.6-0.7-1-1.3-1
											C135,110.3,134.5,110.8,134.6,111.4z"/>
									</g>
								</g>
							</g>
						</g>
					</g>
				</g>
				<g>
					<g>
						<g>
							<g>
								<g>
									<g>
										<path class="st6" d="M147.2,108.7c0.1,0.6,0.7,1,1.3,1c0.6-0.1,1.1-0.7,1-1.3c-0.1-0.6-0.7-1-1.3-1
											C147.6,107.5,147.2,108.1,147.2,108.7z"/>
									</g>
								</g>
							</g>
						</g>
					</g>
				</g>
				<path class="st8" d="M145.2,120c-0.9-0.3-1.7,0.2-2.1,0.9c-0.4,0.7-0.3,1.6,0.3,2.1c0.5,0.5,1.5,0.6,2.1,0.1
					c0.4-0.3,0.6-0.8,0.7-1.4c0-0.5,0-1-0.3-1.4c-0.3-0.4-0.8-0.6-1.3-0.4"/>
				<path class="st6" d="M151,96c-0.7-3.2-2.8-5.9-5.5-7.7c-2.3-1.6-4.9-2.6-7.7-2.7c-2.7-0.1-5.6,0.8-7.5,2.7
					c-1.5,1.4-2.2,3.4-2.3,5.4l0.2-1.4c-0.4,1.1-0.4,2.4,0,3.5c0,0,0,0,0,0l0,0c0.2,0.6,0.5,1.2,0.8,1.8c0.7,1.7,2.1,3.2,3.7,4.1
					c0.8,0.4,1.6,0.7,2.5,0.6c0.9,0,1.7-0.4,2.3-1.1c0.8-1,0.7-2.4,0.5-3.6c0.7,1.2,1.5,2.4,2.7,3.1c1.2,0.7,2.9,0.7,3.8-0.4
					c0.8-1.1,0.5-2.6,0-3.8c0.8,1.2,1.9,2.1,3.1,2.7c0.7,0.3,1.5,0.5,2.2,0.2c0.6-0.3,1-0.9,1.2-1.5C151.2,97.4,151.1,96.7,151,96z"
					/>
				<g>
					<path class="st9" d="M143.8,98.7c-0.1,0-0.1-1.2-0.5-3c-0.4-1.8-1.3-4.4-3.5-6.3c-1.1-0.9-2.3-1.6-3.5-1.9
						c-1.2-0.3-2.3-0.3-3.2-0.1c-1.8,0.4-2.7,1.2-2.8,1.2c0,0,0.2-0.3,0.6-0.6c0.4-0.3,1.1-0.7,2.1-0.9c0.9-0.2,2.1-0.3,3.4,0
						c1.3,0.3,2.6,1,3.7,1.9c2.3,2,3.2,4.7,3.5,6.6c0.2,1,0.2,1.7,0.2,2.3C143.8,98.4,143.8,98.7,143.8,98.7z"/>
				</g>
			</g>
		</g>
		<path class="st7" d="M235.9,215.2L197.4,200c0,0-19.7-25.8-19.3-26.3l-13.8,15.1l20.1,27.2l46.6,10.9l22.1,0.2
			C251.3,218.6,235.9,215.2,235.9,215.2z"/>
		<g>
			<g>
				<g>
					<g>
						<g>
							<path class="st10" d="M152.1,141.6l-5.2-2l-22.6,2.9v4l-0.6,0.1c0,0-7,1.3-13.9,5.4c-8.3,5-12.6,14.5-11,24.1
								c0.9,5.7,2.7,12.7,6.1,16.7c6.6,7.7,12.6-1.8,12.6-1.8s4.1,9.4,3.9,13.9c-0.2,3.7-1.8,11.5-2.4,13.9
								c-0.1,0.4,0.2,0.8,0.6,0.9l47.7,8.8l0.2-11.7l-1.5-48l-2.1-18.6C163.8,150,163.9,141.1,152.1,141.6z"/>
						</g>
					</g>
				</g>
			</g>
			<polygon class="st10" points="163.1,146.9 181.3,173.2 166.6,191 			"/>
			<g>
				<path class="st6" d="M167,202.2c0,0-0.1-0.6-0.1-1.7c0-1.2,0-2.7-0.1-4.6c-0.1-3.9-0.3-9.3-1.1-15.2c-0.8-5.9-1.9-11.2-2.8-15
					c-0.4-1.8-0.8-3.4-1.1-4.5c-0.2-1.1-0.4-1.7-0.3-1.7c0,0,0.2,0.6,0.5,1.6c0.3,1,0.7,2.6,1.2,4.5c1,3.8,2.2,9.1,2.9,15
					c0.8,5.9,0.9,11.3,0.9,15.2c0,2,0,3.5-0.1,4.6C167.1,201.6,167,202.2,167,202.2z"/>
			</g>
			<g>
				<path class="st2" d="M122.2,162.2c0,0.1-1.4,0.1-3.6,0.2c-2.2,0.1-5.3,0.4-8.6,1.1c-3.3,0.7-6.2,1.6-8.3,2.4
					c-2.1,0.8-3.3,1.3-3.4,1.3c0,0,0.3-0.2,0.8-0.5c0.6-0.3,1.4-0.7,2.4-1.1c2.1-0.9,5-1.9,8.3-2.6c3.3-0.7,6.4-0.9,8.7-1
					c1.1,0,2,0,2.6,0.1C121.9,162.2,122.2,162.2,122.2,162.2z"/>
			</g>
			<g>
				<path class="st2" d="M164.3,174.3c0,0.1-0.9,0.3-2.3,0.5c-1.4,0.2-3.4,0.4-5.6,0.5c-2.2,0.1-4.2,0-5.6-0.1
					c-1.4-0.1-2.3-0.3-2.3-0.3c0-0.1,0.9-0.1,2.3,0c1.4,0,3.4,0,5.6,0c2.2-0.1,4.1-0.2,5.5-0.3C163.5,174.3,164.3,174.2,164.3,174.3
					z"/>
			</g>
			<g>
				<path class="st2" d="M172.7,162.4c0.1,0.1-1.5,1.7-3.9,3.2c-2.4,1.5-4.5,2.2-4.6,2c-0.1-0.1,2-1,4.3-2.5
					C170.9,163.7,172.6,162.3,172.7,162.4z"/>
			</g>
			<g>
				<path class="st2" d="M165.3,150.2c0.1,0.1-2.1,2-5.3,3.4c-3.2,1.4-6.1,1.6-6.1,1.5c0-0.2,2.8-0.6,5.9-1.9
					C163,151.8,165.3,150.1,165.3,150.2z"/>
			</g>
			<g>
				<path class="st2" d="M166.3,194.6c0,0-0.3,0.2-0.9,0.5c-0.6,0.3-1.5,0.7-2.7,1.1c-2.3,0.8-5.6,1.8-9.3,2.4
					c-3.7,0.6-7.1,0.6-9.6,0.5c-1.2-0.1-2.2-0.1-2.9-0.2c-0.7-0.1-1.1-0.2-1.1-0.2c0-0.1,1.5,0,4,0.1c2.4,0,5.8-0.1,9.5-0.7
					c3.7-0.6,6.9-1.4,9.2-2.2C164.9,195.1,166.3,194.6,166.3,194.6z"/>
			</g>
			<g>
				<path class="st2" d="M166.7,208.2c0,0-0.1,0.1-0.4,0.2c-0.3,0.2-0.8,0.4-1.3,0.6c-1.1,0.5-2.7,1.2-4.8,2c-2,0.8-4.5,1.6-7.3,2.3
					c-2.8,0.7-5.9,1.4-9.2,1.9c-3.3,0.5-6.5,0.8-9.3,0.9c-2.9,0.1-5.5,0.1-7.7,0c-2.2-0.1-3.9-0.3-5.1-0.4c-0.6-0.1-1-0.1-1.4-0.2
					c-0.3,0-0.5-0.1-0.5-0.1c0,0,0.2,0,0.5,0c0.4,0,0.8,0.1,1.4,0.1c1.2,0.1,3,0.2,5.1,0.3c2.2,0.1,4.8,0,7.6-0.1
					c2.9-0.2,6-0.5,9.3-1c3.3-0.5,6.3-1.2,9.1-1.9c2.8-0.7,5.2-1.5,7.3-2.2c2-0.7,3.7-1.3,4.8-1.8c0.5-0.2,0.9-0.4,1.3-0.5
					C166.5,208.2,166.7,208.2,166.7,208.2z"/>
			</g>
		</g>
		<g>
			<g>
				<g>
					<path class="st10" d="M79,420.8l-5.4,24.4l-9.8,18.1c-0.7,1.3-0.2,2.9,1.2,3.6l0,0c0.8,0.3,1.6,0.3,2.3-0.1
						c4.6-2.6,21.4-12.5,21.7-14.3c0.3-2.1,7.4-25.4,7.4-25.4L79,420.8z"/>
				</g>
				<g class="st11">
					<path class="st12" d="M64.9,466.9l24.4-16l-0.3,1c-0.2,0.9-0.7,1.7-1.5,2.2c-2,1.4-7.6,5.3-20.3,12.7
						C66.6,467.2,65.7,467.2,64.9,466.9L64.9,466.9z"/>
				</g>
				<g class="st11">
					<g>
						<path class="st12" d="M86.3,441.8c-0.7,0.3-1.1,1.1-0.9,1.9c0.2,0.7,1.1,1.2,1.8,0.9c0.7-0.3,1.3-1.3,0.9-2
							c-0.3-0.7-1.4-1.2-2-0.7"/>
					</g>
				</g>
				<g>
					<g>
						<path class="st6" d="M73.1,457.6c-0.2,0-0.4-1.4-1.7-2.4c-1.2-1.1-2.7-1.1-2.7-1.2c0-0.1,0.3-0.2,0.9-0.1
							c0.6,0.1,1.4,0.3,2.1,0.9c0.7,0.6,1.1,1.3,1.3,1.9C73.2,457.2,73.1,457.6,73.1,457.6z"/>
					</g>
				</g>
				<g>
					<g>
						<path class="st6" d="M70.5,460.4c-0.1,0.1-0.7-0.9-1.9-1.6c-1.2-0.7-2.3-0.7-2.3-0.9c0-0.1,1.3-0.4,2.6,0.4
							C70.2,459.2,70.7,460.4,70.5,460.4z"/>
					</g>
				</g>
				<g>
					<g>
						<path class="st6" d="M77.3,454.2c-0.1,0.1-1-1.4-2.8-2.6c-1.7-1.2-3.4-1.6-3.4-1.7c0-0.1,1.9,0,3.7,1.3
							C76.7,452.4,77.4,454.2,77.3,454.2z"/>
					</g>
				</g>
				<g>
					<g>
						<path class="st6" d="M79.6,446.9c-0.1,0.1-1.3-0.8-3-1.3c-1.7-0.5-3.2-0.4-3.2-0.6c0-0.1,1.5-0.5,3.4,0
							C78.5,445.7,79.7,446.8,79.6,446.9z"/>
					</g>
				</g>
				<g>
					<g>
						<path class="st6" d="M81.3,439.8c-0.1,0.1-1.3-1-3.1-1.4c-1.9-0.4-3.4,0.2-3.4,0c0-0.1,0.3-0.3,1-0.5c0.6-0.2,1.6-0.3,2.6-0.1
							c1,0.2,1.8,0.7,2.3,1.1C81.2,439.4,81.4,439.8,81.3,439.8z"/>
					</g>
				</g>
				<g>
					<g>
						<path class="st6" d="M78.6,437.1c0,0,0-0.3,0.2-0.9c0.2-0.6,0.6-1.4,1.3-2.2c0.4-0.4,0.8-0.9,1.5-1.1c0.4-0.1,0.9,0.1,1.1,0.5
							c0.2,0.4,0.2,0.8,0.1,1.2c-0.4,1.5-2.1,2.7-3.9,2.5c-1.8-0.2-3.1-1.6-3.5-3.1c-0.1-0.4-0.1-0.8,0.2-1.2
							c0.3-0.4,0.8-0.4,1.2-0.3c0.7,0.3,1,0.8,1.4,1.2c0.7,0.9,1,1.7,1.2,2.3c0.2,0.6,0.2,0.9,0.2,0.9c-0.1,0-0.3-1.3-1.7-3
							c-0.3-0.4-0.7-0.9-1.2-1c-0.2-0.1-0.5,0-0.6,0.1c-0.1,0.2-0.2,0.5-0.1,0.8c0.3,1.2,1.5,2.5,3.1,2.7c1.5,0.2,3-0.8,3.3-2.1
							c0.1-0.3,0.1-0.6,0-0.8c-0.1-0.2-0.3-0.3-0.6-0.3c-0.5,0.1-1,0.5-1.3,0.9C78.9,435.7,78.7,437.1,78.6,437.1z"/>
					</g>
				</g>
			</g>
			<g class="st13">
				<polygon points="78.3,423.4 77.2,429 94.9,432 96.3,427.1 79,420.8 				"/>
			</g>
		</g>
		<g>
			<g>
				<g>
					<path class="st10" d="M158,429.8l-1.5,19.5c0,0,19.4,8,19.4,11.7l-38-1.5l1-30.5L158,429.8z"/>
				</g>
				<g class="st11">
					<g>
						<path class="st12" d="M144.9,447.2c-0.7,0.2-1.3,1-1.1,1.7c0.1,0.7,1,1.3,1.7,1.1c0.7-0.2,1.4-1.1,1.2-1.8
							c-0.2-0.7-1.2-1.3-1.9-1"/>
					</g>
				</g>
				<g class="st11">
					<path class="st12" d="M138,459.5l0.2-3.1l36.3,2.6c0,0,1.7,0.8,1.4,2L138,459.5z"/>
				</g>
				<g>
					<g>
						<path class="st6" d="M157.2,449.2c0,0.2-0.9,0.2-1.9,0.8c-0.9,0.5-1.5,1.3-1.6,1.2c-0.2,0,0.1-1.1,1.3-1.8
							C156.1,448.7,157.2,449,157.2,449.2z"/>
					</g>
				</g>
				<g>
					<g>
						<path class="st6" d="M161.1,451c0,0.2-0.8,0.5-1.4,1.2c-0.7,0.7-0.9,1.6-1.1,1.6c-0.2,0-0.3-1.1,0.6-2
							C160,450.8,161.1,450.8,161.1,451z"/>
					</g>
				</g>
				<g>
					<g>
						<path class="st6" d="M163.2,455.8c-0.2,0-0.4-0.9,0.1-1.9c0.5-1,1.4-1.4,1.5-1.2c0.1,0.2-0.5,0.7-0.9,1.5
							C163.4,455,163.4,455.8,163.2,455.8z"/>
					</g>
				</g>
				<g>
					<g>
						<path class="st6" d="M157,444.7c-0.1,0.2-0.9-0.1-2-0.1c-1.1,0-1.9,0.3-2,0.2c-0.1-0.1,0.7-0.8,2-0.8
							C156.3,443.9,157.1,444.5,157,444.7z"/>
					</g>
				</g>
			</g>
			<g class="st13">
				<polygon points="157.7,433.7 157.5,437.2 138.8,436.3 139,432.2 				"/>
			</g>
			<g>
				<g>
					<path class="st6" d="M157.2,440.7c0,0.1-0.7,0.2-1.9-0.1c-0.6-0.1-1.3-0.3-2-0.7c-0.4-0.2-0.7-0.4-1.1-0.6
						c-0.2-0.1-0.4-0.2-0.6-0.5c-0.2-0.2-0.3-0.7,0-1c0.2-0.3,0.6-0.4,0.8-0.4c0.3,0,0.5,0.1,0.7,0.1c0.4,0.1,0.8,0.3,1.2,0.5
						c0.7,0.4,1.3,0.8,1.7,1.2c0.8,0.8,1.1,1.6,1.1,1.6c-0.1,0.1-0.5-0.5-1.4-1.2c-0.4-0.4-1-0.7-1.7-1c-0.3-0.1-0.7-0.3-1.1-0.4
						c-0.4-0.1-0.7-0.1-0.8,0c0,0.1,0,0.1,0,0.2c0.1,0.1,0.2,0.2,0.4,0.3c0.3,0.2,0.7,0.4,1,0.6c0.6,0.4,1.3,0.6,1.8,0.8
						C156.5,440.6,157.3,440.6,157.2,440.7z"/>
				</g>
			</g>
			<g>
				<g>
					<path class="st6" d="M157,441c-0.1,0-0.4-0.7-0.4-1.9c0-0.6,0.1-1.3,0.3-2.1c0.1-0.4,0.3-0.8,0.5-1.1c0.2-0.4,0.5-0.9,1.2-0.9
						c0.4,0,0.7,0.3,0.8,0.6c0.1,0.3,0.1,0.5,0.2,0.7c0.1,0.4,0,0.9,0,1.3c-0.2,0.8-0.5,1.5-0.9,1.9c-0.8,1-1.6,1.1-1.6,1.1
						c-0.1-0.1,0.6-0.4,1.2-1.4c0.3-0.5,0.6-1.1,0.7-1.8c0.1-0.4,0.1-0.7,0-1.1c0-0.4-0.2-0.7-0.3-0.7c-0.2,0-0.5,0.3-0.7,0.6
						c-0.2,0.3-0.4,0.7-0.5,1c-0.3,0.7-0.4,1.3-0.4,1.9C156.9,440.3,157.1,441,157,441z"/>
				</g>
			</g>
		</g>
		<g>
			<path class="st6" d="M118.7,219.3c0,0-6,0.3-10,20.8c-4,20.5-34.5,186.8-34.5,186.8l22.1,0.2L138,269l-2.8,163l22.5,1.7
				c0,0,16.9-180.3,17-190.8c0.2-13.1-7.3-26.3-7.3-26.3L118.7,219.3z"/>
			<g>
				<path class="st9" d="M149.1,217.5c0.1,0-2.2,11.8-5.1,26.2c-3,14.4-5.5,26.1-5.6,26.1c-0.1,0,2.2-11.8,5.1-26.2
					C146.4,229.2,149,217.5,149.1,217.5z"/>
			</g>
			<g>
				<path class="st9" d="M152.6,220.5c0-0.1,0.6-0.2,1.3,0.4c0.3,0.3,0.6,0.8,0.6,1.4c0,0.6-0.5,1.3-1.1,1.5
					c-0.6,0.3-1.4,0.2-1.9-0.2c-0.5-0.4-0.6-1-0.6-1.4c0-0.9,0.6-1.2,0.6-1.2c0.1,0.1-0.3,0.4-0.3,1.2c0,0.4,0.2,0.8,0.5,1.1
					c0.3,0.3,0.9,0.3,1.4,0.1c0.5-0.2,0.8-0.6,0.9-1.1c0-0.4-0.2-0.9-0.4-1.1C153.1,220.5,152.5,220.6,152.6,220.5z"/>
			</g>
			<g>
				<path class="st9" d="M151.6,228.6c0-0.1,0.6,0,1,0.8c0.2,0.4,0.2,0.9-0.1,1.5c-0.3,0.5-1,0.9-1.6,0.8c-0.7,0-1.3-0.5-1.5-1.1
					c-0.2-0.6,0-1.1,0.2-1.5c0.5-0.7,1.1-0.7,1.1-0.7c0,0.1-0.5,0.2-0.8,0.8c-0.1,0.3-0.2,0.7,0,1.1c0.1,0.4,0.6,0.7,1.1,0.7
					c0.5,0,1-0.2,1.2-0.5c0.2-0.4,0.2-0.8,0.1-1.1C152,228.9,151.6,228.7,151.6,228.6z"/>
			</g>
			<g>
				<path class="st9" d="M130.4,220.7c0,0,0,0.4-0.3,1c-0.2,0.6-0.6,1.6-1.2,2.6c-1.1,2.2-3.3,4.9-6.4,7c-3.1,2.1-6.5,2.9-9,3.1
					c-1.2,0.1-2.2,0.1-2.9,0c-0.7-0.1-1.1-0.1-1-0.2c0-0.1,1.5,0.1,3.9-0.2c2.4-0.3,5.7-1.2,8.7-3.2c3.1-2,5.2-4.7,6.4-6.7
					C129.9,222.1,130.3,220.6,130.4,220.7z"/>
			</g>
			<g>
				<path class="st9" d="M173.4,235.3c0,0-0.3-0.1-0.7-0.4c-0.4-0.3-1-0.7-1.6-1.4c-1.3-1.2-2.8-3.3-3.8-5.8c-1-2.6-1.2-5.1-1.1-6.9
					c0-0.9,0.1-1.6,0.3-2.1c0.1-0.5,0.2-0.7,0.2-0.7c0.1,0-0.1,1.1-0.1,2.8c0,1.7,0.3,4.2,1.2,6.7c1,2.5,2.4,4.5,3.5,5.8
					C172.6,234.5,173.5,235.2,173.4,235.3z"/>
			</g>
		</g>
	</g>
	<g>
		<g>
			<g>
				<g>
					<g>
						<path class="st7" d="M109.9,179.8l9.8,0.5c0.6,3.2,2.8,8.1,2.8,8.1c7.9-13.7,14-32.1,15.6-39.5c-0.2-0.7-0.5-1.6-0.8-2.5
							c-0.4-1.1-0.1-3,0.1-4.2c0.3-1.6,0.7-3.9,0.9-4.9c0.4-3.1,0.9-3.6,2-3.3c1.5,0.5-0.6,8.8,0.6,8.9c0.7,0.1,1.5-2.7,1.7-5.1
							c0.2-2.3,1.3-9.5,2.1-10c1.1-0.7,2.1,0.4,1.8,2.7c-0.3,2.3-0.7,9.4,0.6,9.4c1.2,0.1,2.2-11.8,2.2-11.8s-0.2-2.6,1.2-2.5
							c2.6,0.1,0.6,12.6,0.3,13.8c-0.2,0.8,1.2,1,1.3,0.1c0.1-0.9,0.7-11.9,3.4-11.8c2,0.1-1.6,10.3-0.4,12.7
							c1.1,2.4,1.9-8.1,3.8-7.9c0.7,0.1,1.2,0.2-0.1,6.1c-0.7,3.2-2.8,9-4.6,13.9c-3,16.4-16.4,68.9-37.3,59.3
							c-11.7-5.4-17.2-32-17.2-32L109.9,179.8z"/>
					</g>
				</g>
				<g>
					<g>
						<g>
							<path class="st8" d="M154.2,152.7c0,0,0-0.1,0.1-0.4c0.1-0.3,0.2-0.6,0.4-1c0.3-0.9,0.8-2.3,1.4-4c0.6-1.7,1.3-3.8,2-6.3
								c0.4-1.2,0.7-2.6,0.9-4c0.1-0.7,0.3-1.5,0.4-2.2c0-0.4,0.1-0.8,0.1-1.1c0-0.4-0.1-0.7-0.4-0.7c-0.3-0.1-0.5,0.2-0.8,0.5
								c-0.2,0.3-0.4,0.7-0.5,1.1c-0.3,0.8-0.5,1.6-0.7,2.5c-0.2,0.9-0.4,1.7-0.7,2.6c-0.2,0.5-0.2,0.9-0.6,1.4
								c-0.1,0.1-0.1,0.1-0.3,0.2c-0.2,0-0.3,0-0.4-0.1c-0.1-0.1-0.2-0.3-0.3-0.4c-0.1-0.3-0.2-0.5-0.2-0.8c-0.2-2,0.3-3.9,0.6-6
								c0.2-1,0.4-2,0.5-3c0.1-0.5,0.1-1,0.1-1.5c0-0.5-0.1-1.1-0.3-1.2c-0.3-0.1-0.7,0.2-1,0.6c-0.3,0.4-0.5,0.9-0.7,1.4
								c-0.3,1-0.6,2.1-0.8,3.2c-0.2,1.1-0.3,2.2-0.5,3.4c-0.1,0.6-0.1,1.1-0.2,1.7l-0.1,0.9c0,0.2,0,0.7-0.4,1
								c-0.3,0.3-0.8,0.3-1.2,0c-0.2-0.1-0.3-0.3-0.4-0.6c0-0.1,0-0.2,0-0.3l0-0.2c0.1-0.6,0.2-1.2,0.3-1.7c0.2-1.2,0.3-2.4,0.4-3.6
								c0.1-1.2,0.2-2.4,0.2-3.6c0-1.2,0-2.5-0.4-3.6c-0.1-0.3-0.3-0.6-0.5-0.7c-0.2-0.1-0.5,0-0.7,0.2c-0.3,0.5-0.4,1.3-0.4,1.9
								l0,0l0,0c-0.2,2.4-0.5,4.7-0.8,6.9c-0.2,1.1-0.4,2.3-0.6,3.4c-0.1,0.3-0.2,0.6-0.3,0.8c-0.1,0.3-0.2,0.6-0.6,0.9
								c-0.3,0.2-0.6,0-0.7-0.2c-0.1-0.2-0.2-0.3-0.3-0.5c-0.1-0.3-0.2-0.6-0.2-0.9c-0.3-2.3-0.2-4.4-0.1-6.6c0-1.1,0.3-2.1,0.2-3.1
								c-0.1-0.5-0.2-0.9-0.6-1.1c-0.2-0.1-0.3-0.1-0.5-0.1c-0.1,0-0.2,0.1-0.3,0.1c-0.1,0.1-0.1,0-0.1,0.2
								c-0.4,0.8-0.6,1.8-0.8,2.8c-0.2,1-0.4,1.9-0.5,2.8c-0.2,0.9-0.3,1.9-0.4,2.8c-0.1,0.9-0.2,1.8-0.4,2.7
								c-0.2,0.9-0.4,1.8-0.7,2.6c-0.1,0.2-0.2,0.4-0.3,0.6c-0.1,0.2-0.2,0.4-0.6,0.6c-0.2,0.1-0.4-0.1-0.5-0.2
								c-0.1-0.1-0.1-0.3-0.2-0.4c-0.1-0.2-0.1-0.5-0.1-0.7c0-1.7,0.2-3.3,0.3-4.8c0-0.7,0.1-1.5,0-2.2c0-0.3-0.1-0.7-0.3-0.8
								c-0.3-0.1-0.6-0.2-0.8,0c-0.4,0.3-0.6,1.1-0.7,1.6c-0.1,0.6-0.2,1.2-0.3,1.8c-0.4,2.4-0.9,4.4-1.1,6.1
								c-0.1,0.8-0.1,1.6,0,2.2c0.1,0.6,0.3,1.1,0.5,1.6c0.1,0.4,0.2,0.7,0.3,1c0.1,0.2,0.1,0.3,0.1,0.3c0,0-0.1-0.1-0.1-0.3
								c-0.1-0.2-0.2-0.6-0.3-0.9c-0.1-0.4-0.3-0.9-0.5-1.6c-0.1-0.7-0.1-1.4,0-2.3c0.2-1.7,0.6-3.7,1-6.1c0.1-0.6,0.2-1.2,0.3-1.9
								c0.1-0.3,0.1-0.6,0.3-1c0.1-0.3,0.3-0.7,0.6-0.9c0.4-0.2,0.8-0.2,1.2,0c0.5,0.3,0.5,0.7,0.6,1.1c0.1,0.7,0.1,1.5,0,2.3
								c-0.1,1.5-0.3,3.1-0.3,4.7c0,0.2,0,0.4,0.1,0.6c0,0.2,0.1,0.3,0.1,0.2c0,0,0.2-0.2,0.3-0.3c0.1-0.2,0.2-0.4,0.3-0.6
								c0.3-0.8,0.5-1.6,0.7-2.5c0.2-0.9,0.2-1.8,0.3-2.7c0.1-0.9,0.2-1.9,0.4-2.8c0.1-0.9,0.3-1.9,0.5-2.9c0.2-1,0.4-1.9,0.8-3
								c0-0.1,0.2-0.3,0.4-0.4c0.1-0.1,0.3-0.1,0.4-0.2c0.3-0.1,0.7,0,1,0.2c0.6,0.4,0.7,1,0.8,1.5c0.1,0.5,0.1,1.1,0,1.6
								c-0.1,0.5-0.1,1-0.1,1.6c-0.1,2.1-0.2,4.3,0.1,6.4c0,0.3,0.1,0.5,0.2,0.7c0,0.1,0.1,0.2,0.1,0.3c0,0,0,0,0,0l0,0l0,0
								c0,0.2,0,0,0,0.1c0,0,0,0,0-0.1c0.1,0,0.2-0.3,0.3-0.5c0.1-0.2,0.2-0.5,0.2-0.8c0.3-1.1,0.5-2.2,0.6-3.3
								c0.3-2.3,0.6-4.6,0.8-6.9l0,0c0-0.8,0-1.6,0.5-2.4c0.3-0.4,0.9-0.6,1.4-0.4c0.5,0.2,0.7,0.7,0.9,1.1c0.4,1.3,0.4,2.5,0.4,3.8
								c0,1.2-0.1,2.5-0.2,3.7c-0.1,1.2-0.3,2.4-0.4,3.6c-0.1,0.6-0.2,1.2-0.3,1.8c-0.1,0.4-0.1,0.4,0.1,0.5c0.1,0.1,0.4,0.1,0.5,0
								c0.1-0.1,0.1-0.3,0.2-0.6l0.1-0.9c0.1-0.6,0.1-1.2,0.2-1.7c0.1-1.1,0.3-2.3,0.5-3.4c0.2-1.1,0.4-2.2,0.8-3.3
								c0.2-0.5,0.4-1.1,0.7-1.6c0.2-0.2,0.4-0.5,0.6-0.7c0.3-0.2,0.6-0.3,1-0.2c0.4,0.2,0.5,0.6,0.5,0.9c0,0.3,0.1,0.6,0.1,0.8
								c0,0.6-0.1,1.1-0.1,1.6c-0.1,1-0.3,2.1-0.5,3.1c-0.3,2-0.8,4-0.6,5.8c0,0.2,0.1,0.4,0.2,0.6c0,0.1,0.1,0.2,0.1,0.2
								c0,0,0,0,0,0c0,0.1,0,0,0,0c0-0.1,0,0,0-0.1c0.2-0.3,0.4-0.8,0.5-1.2c0.3-0.9,0.5-1.8,0.7-2.6c0.2-0.9,0.5-1.7,0.7-2.5
								c0.1-0.4,0.3-0.8,0.5-1.2c0.1-0.2,0.2-0.4,0.5-0.5c0.1-0.1,0.2-0.1,0.4-0.2c0.2,0,0.3,0,0.4,0c0.2,0,0.6,0.2,0.6,0.5
								c0.1,0.2,0.1,0.5,0.1,0.7c0,0.4,0,0.8-0.1,1.2c-0.1,0.8-0.2,1.5-0.4,2.2c-0.3,1.4-0.6,2.8-1,4c-0.7,2.5-1.5,4.6-2.1,6.3
								c-0.6,1.7-1.1,3-1.5,3.9c-0.2,0.4-0.3,0.8-0.4,1C154.3,152.6,154.2,152.7,154.2,152.7z"/>
						</g>
					</g>
				</g>
			</g>
			<g>
				<path class="st10" d="M99.7,180.9c1.9,6.7,5.6,17.1,9.6,28c0.6,1.6,2.8,1.7,3.5,0.2l9.8-20.7c0,0-2.4-17-2.2-16.4
					c0.2,0.6-20.2,2.2-20.2,2.2L99.7,180.9z"/>
			</g>
		</g>
		<g>
			<path class="st2" d="M121.7,177.6c0,0.1-1.2,0.4-3.2,1.2c-1.9,0.7-4.6,1.9-7.3,3.5c-2.7,1.6-4.9,3.4-6.5,4.8
				c-1.6,1.4-2.4,2.3-2.5,2.2c0,0,0.2-0.3,0.5-0.7c0.4-0.4,1-1.1,1.7-1.8c1.5-1.5,3.7-3.3,6.5-5c2.7-1.7,5.4-2.8,7.4-3.4
				c1-0.3,1.8-0.6,2.4-0.7C121.4,177.6,121.7,177.5,121.7,177.6z"/>
		</g>
		<g>
			<path class="st6" d="M125.6,182.7c-0.1,0-0.7-0.7-1.6-2.1c-0.9-1.4-2-3.4-3-5.7c-1-2.3-1.6-4.6-1.9-6.2c-0.3-1.6-0.4-2.7-0.4-2.7
				c0.1,0,0.3,1,0.7,2.6c0.4,1.6,1.1,3.8,2,6.1c1,2.3,2,4.3,2.9,5.7C125.1,181.8,125.6,182.7,125.6,182.7z"/>
		</g>
	</g>
	<g>
		<path class="st6" d="M132.1,91.1c-3.4,5.5-4.1,12.7-1.9,18.8c1,2.7,2.6,5.5,2.3,8.4c-0.3,3-2.6,5.8-1.8,8.7c0.5,1.7,1.9,3,2.5,4.7
			c0.7,2,0,4.1-0.3,6.2c-0.8,5.2,0.9,10.5,1.3,15.8c0.4,5.3-1,11.5-5.7,13.8c-1.4,0.7-3.3,0.9-4.5-0.2c-1.5-1.4-1.1-3.8-0.7-5.8
			c4.1-20-8.6-39.5-5.7-59.8c0.5-3.2,2.3-8.7,4.6-11c2.3-2.3,8.8-2,11,0.4"/>
		<g>
			<path class="st9" d="M112.4,149.1c0,0,0.6-0.7,1.5-2.1c0.9-1.4,2-3.6,2.6-6.5c0.3-1.5,0.4-3.1,0.3-4.9c-0.1-1.8-0.3-3.7-0.2-5.7
				c0-1,0.3-2,0.6-3.1c0.4-1,0.8-2,1.4-2.9c1.1-1.9,2.5-3.7,3.8-5.5c1.3-1.9,2.4-3.9,2.7-6c0.4-2.1,0-4.2-0.3-6.1
				c-0.3-2-0.6-3.9-0.4-5.7c0.1-1.8,0.5-3.4,1-4.9c1-2.9,2.4-4.9,3.5-6.2c0.6-0.6,1-1.1,1.4-1.4c0.3-0.3,0.5-0.4,0.5-0.4
				c0,0-0.7,0.7-1.7,2c-1,1.3-2.4,3.4-3.3,6.2c-0.5,1.4-0.8,3-0.9,4.8c-0.1,1.8,0.1,3.6,0.5,5.6c0.3,2,0.7,4.1,0.4,6.3
				c-0.4,2.2-1.5,4.3-2.8,6.2c-1.3,1.9-2.7,3.7-3.8,5.5c-0.5,0.9-1,1.9-1.3,2.8c-0.3,1-0.5,2-0.6,2.9c-0.1,2,0.1,3.9,0.2,5.6
				c0.1,1.8-0.1,3.5-0.4,5c-0.6,3-1.8,5.2-2.8,6.6c-0.5,0.7-0.9,1.2-1.2,1.5C112.6,149,112.4,149.1,112.4,149.1z"/>
		</g>
		<g>
			<path class="st9" d="M102.9,150.6c0,0,0.1-0.2,0.3-0.7c0.2-0.5,0.6-1.1,1-1.9c0.8-1.6,2.1-4,3.3-7c1.2-3,2.4-6.8,2.4-11.1
				c0-1.1-0.1-2.2-0.2-3.3c-0.2-1.1-0.4-2.2-0.6-3.4c-0.2-1.2-0.2-2.4,0.1-3.7c0.3-1.2,1.1-2.4,2-3.2c1.9-1.7,4.2-2.8,5.3-4.8
				c1.2-2,1.5-4.3,1.8-6.4c0.3-2.2,0.7-4.2,1.4-6c0.7-1.8,1.6-3.4,2.5-4.8c1.9-2.7,4-4.4,5.6-5.4c0.8-0.5,1.4-0.9,1.8-1.1
				c0.4-0.2,0.7-0.3,0.7-0.3c0,0.1-0.9,0.5-2.4,1.5c-1.5,1.1-3.5,2.8-5.4,5.5c-0.9,1.3-1.8,2.9-2.4,4.7c-0.7,1.8-1.1,3.8-1.3,6
				c-0.3,2.1-0.5,4.5-1.8,6.6c-1.3,2.2-3.6,3.3-5.4,5c-0.9,0.8-1.6,1.8-1.9,3c-0.3,1.1-0.2,2.3-0.1,3.5c0.2,1.2,0.4,2.3,0.6,3.4
				c0.2,1.1,0.2,2.3,0.2,3.4c-0.1,4.4-1.3,8.2-2.6,11.2c-1.3,3-2.6,5.4-3.5,7c-0.4,0.8-0.8,1.4-1.1,1.8
				C103.1,150.4,102.9,150.6,102.9,150.6z"/>
		</g>
	</g>
</g>
<g id="Plant">
	<g>
		<g>
			<g>
				<g>
					<g>
						<path class="st6" d="M433.8,433.2c0,0,0.1-0.1,0.2-0.4c0.1-0.3,0.3-0.7,0.6-1.2c0.5-1.1,1.1-2.7,1.7-4.8
							c1.1-4.3,1.5-10.9-0.1-18.7c-0.8-3.9-2-8.1-3.5-12.5c-1.5-4.5-3.2-9.2-4.6-14.3c-1.4-5.1-2.5-10.6-2.3-16.4
							c0.2-5.8,1.9-11.6,3.8-17.4c1.9-5.8,3.8-11.4,4.4-17.1c0.7-5.7-0.6-11.2-3.1-15.8c-2.5-4.6-5.7-8.6-8-12.6
							c-2.4-4.1-3.9-8.3-4.8-12.2c-1.8-7.9-1.2-14.5-0.3-18.8c0.9-4.4,2-6.6,2-6.6c0,0,0,0.2-0.1,0.4c-0.1,0.3-0.2,0.7-0.4,1.3
							c-0.3,1.1-0.8,2.8-1.2,5c-0.8,4.4-1.3,10.9,0.5,18.7c0.9,3.9,2.4,8,4.8,12c2.4,4,5.5,8,8.1,12.6c2.6,4.6,3.9,10.4,3.2,16.1
							c-0.6,5.8-2.6,11.5-4.4,17.2c-1.9,5.8-3.6,11.5-3.8,17.2c-0.2,5.7,0.8,11.2,2.2,16.3c1.4,5.1,3.1,9.8,4.5,14.3
							c1.5,4.5,2.7,8.7,3.4,12.6c1.6,7.9,1.1,14.5,0,18.8c-0.6,2.2-1.3,3.8-1.8,4.8c-0.3,0.5-0.5,0.9-0.6,1.2
							C433.9,433.1,433.8,433.2,433.8,433.2z"/>
					</g>
				</g>
			</g>
			<g>
				<g>
					<g>
						<path class="st10" d="M426.1,305.9c0,0-4.8-15.3,3.8-24.3c0.3-0.3,0.8-0.2,0.9,0.3C431.2,284.4,431.8,292.1,426.1,305.9z"/>
					</g>
				</g>
				<g>
					<g>
						<g>
							<path class="st6" d="M428.9,286.7c0.1,0-0.1,1.1-0.3,2.8c-0.3,1.9-0.7,4.2-1.1,6.8c-0.4,2.5-0.8,4.8-1.1,6.7
								c-0.3,1.7-0.4,2.8-0.5,2.8c-0.1,0-0.1-1.1,0.1-2.8c0.2-1.7,0.5-4.2,0.9-6.8c0.4-2.6,0.9-5,1.3-6.7
								C428.6,287.8,428.8,286.7,428.9,286.7z"/>
						</g>
					</g>
				</g>
			</g>
			<g>
				<g>
					<g>
						<path class="st10" d="M431.7,342c0,0,2.9-15.8,14.7-19.7c0.4-0.1,0.8,0.2,0.7,0.7C446.3,325.4,443.2,332.5,431.7,342z"/>
					</g>
				</g>
				<g>
					<g>
						<g>
							<path class="st6" d="M443.2,326.4c0.1,0.1-0.6,0.9-1.6,2.3c-1.2,1.6-2.6,3.4-4.1,5.5c-1.5,2-2.9,3.9-4.1,5.5
								c-1,1.4-1.7,2.3-1.8,2.2c-0.1,0,0.5-1,1.4-2.5c1-1.5,2.4-3.5,4-5.6c1.6-2.1,3.1-4,4.3-5.4
								C442.4,327.1,443.1,326.3,443.2,326.4z"/>
						</g>
					</g>
				</g>
			</g>
			<g>
				<g>
					<g>
						<path class="st10" d="M428.5,381.5c0,0-1.8-15.9,8.4-23.1c0.4-0.3,0.8,0,0.8,0.4C437.7,361.4,436.8,369.1,428.5,381.5z"/>
					</g>
				</g>
				<g>
					<g>
						<g>
							<path class="st6" d="M435,363.3c0.1,0-0.3,1.1-0.9,2.7c-0.7,1.8-1.5,4-2.4,6.4c-0.9,2.4-1.7,4.6-2.3,6.4
								c-0.6,1.6-0.9,2.7-1,2.6c-0.1,0,0.1-1.1,0.6-2.8c0.5-1.7,1.3-4,2.2-6.5c0.9-2.5,1.8-4.8,2.5-6.4
								C434.4,364.2,434.9,363.2,435,363.3z"/>
						</g>
					</g>
				</g>
			</g>
			<g>
				<g>
					<g>
						<path class="st10" d="M437.4,421.3c0,0-1.2-16,9.2-22.8c0.4-0.2,0.8,0,0.8,0.5C447.3,401.6,446.1,409.2,437.4,421.3z"/>
					</g>
				</g>
				<g>
					<g>
						<g>
							<path class="st6" d="M444.5,403.3c0.1,0-0.3,1.1-1,2.7c-0.7,1.8-1.6,4-2.6,6.3c-1,2.4-1.8,4.5-2.6,6.3
								c-0.6,1.6-1,2.6-1.1,2.6c-0.1,0,0.2-1.1,0.7-2.8c0.5-1.7,1.4-3.9,2.4-6.4c1-2.5,2-4.7,2.8-6.3
								C443.9,404.2,444.4,403.3,444.5,403.3z"/>
						</g>
					</g>
				</g>
			</g>
			<g>
				<g>
					<g>
						<path class="st10" d="M419.2,292.4c0,0-14.2-7.4-14.5-19.8c0-0.4,0.5-0.7,0.8-0.5C407.6,273.6,413.5,278.6,419.2,292.4z"/>
					</g>
				</g>
				<g>
					<g>
						<g>
							<path class="st6" d="M407.6,276.9c0.1,0,0.7,0.8,1.8,2.2c1.2,1.6,2.5,3.5,4,5.5c1.5,2.1,2.9,3.9,4,5.5c1,1.4,1.7,2.3,1.6,2.3
								c-0.1,0.1-0.8-0.7-2-2.1c-1.1-1.3-2.6-3.3-4.2-5.4c-1.6-2.2-2.9-4.2-3.9-5.7C408.1,277.9,407.6,276.9,407.6,276.9z"/>
						</g>
					</g>
				</g>
			</g>
			<g>
				<g>
					<g>
						<path class="st10" d="M434.4,325.3c0,0-14.6-6.5-15.7-18.9c0-0.4,0.4-0.7,0.8-0.5C421.8,307.2,427.9,311.9,434.4,325.3z"/>
					</g>
				</g>
				<g>
					<g>
						<g>
							<path class="st6" d="M422,310.5c0.1-0.1,0.8,0.8,1.9,2.1c1.2,1.5,2.7,3.3,4.3,5.3c1.6,2,3.1,3.8,4.3,5.3
								c1.1,1.3,1.8,2.2,1.8,2.2c-0.1,0.1-0.9-0.7-2.1-1.9c-1.2-1.3-2.8-3.1-4.5-5.2c-1.7-2.1-3.2-4-4.2-5.4
								C422.5,311.4,421.9,310.5,422,310.5z"/>
						</g>
					</g>
				</g>
			</g>
			<g>
				<g>
					<g>
						<path class="st10" d="M426,362c0,0-10.1-12.5-5.3-24c0.2-0.4,0.7-0.5,0.9-0.1C423,340.1,426.3,347,426,362z"/>
					</g>
				</g>
				<g>
					<g>
						<g>
							<path class="st6" d="M421.7,343.1c0.1,0,0.3,1,0.7,2.7c0.4,1.9,0.9,4.2,1.5,6.7c0.5,2.5,1,4.8,1.5,6.7
								c0.4,1.7,0.6,2.8,0.5,2.8c-0.1,0-0.5-1-1-2.7c-0.5-1.7-1.1-4-1.6-6.7c-0.6-2.6-1-5-1.3-6.7
								C421.7,344.2,421.6,343.1,421.7,343.1z"/>
						</g>
					</g>
				</g>
			</g>
			<g>
				<g>
					<g>
						<path class="st10" d="M436,405.1c0,0-14.5-6.8-15.3-19.2c0-0.4,0.4-0.7,0.8-0.5C423.6,386.8,429.7,391.6,436,405.1z"/>
					</g>
				</g>
				<g>
					<g>
						<g>
							<path class="st6" d="M423.8,390.1c0.1,0,0.8,0.8,1.9,2.1c1.2,1.5,2.7,3.4,4.2,5.4c1.6,2,3,3.8,4.3,5.3
								c1.1,1.4,1.8,2.2,1.7,2.3c-0.1,0.1-0.9-0.7-2-2c-1.2-1.3-2.8-3.1-4.4-5.2c-1.7-2.1-3.1-4-4.1-5.5
								C424.3,391,423.7,390.1,423.8,390.1z"/>
						</g>
					</g>
				</g>
			</g>
			<g>
				<g>
					<g>
						<g>
							<path class="st6" d="M464.9,342.1c0,0,0,0.1,0,0.4c0,0.3,0,0.6,0,1c0,1-0.1,2.3-0.2,3.9c-0.2,3.4-0.4,8.2-0.8,13.9l0,0l0,0
								c-1,5.8-4,12.2-8,18.5c-2.9,4.6-6,8.8-8.6,12.7c-2.6,3.9-4.9,7.5-6.4,10.7c-1.6,3.2-2.5,5.9-3,7.8c-0.3,1-0.4,1.7-0.6,2.2
								c-0.1,0.5-0.2,0.8-0.2,0.8c0,0,0-0.3,0.1-0.8c0.1-0.5,0.2-1.3,0.5-2.3c0.5-1.9,1.3-4.7,2.9-7.9c1.5-3.2,3.7-6.9,6.4-10.8
								c2.6-3.9,5.7-8.1,8.5-12.7c3.9-6.2,6.9-12.5,8-18.3l0,0c0.4-5.7,0.7-10.5,1-13.9c0.1-1.6,0.2-2.9,0.3-3.9
								c0-0.4,0.1-0.7,0.1-1C464.9,342.2,464.9,342.1,464.9,342.1z"/>
						</g>
					</g>
				</g>
				<g>
					<g>
						<g>
							<path class="st10" d="M456.3,378.5c0,0,6.2-14.8-1.6-24.5c-0.3-0.3-0.8-0.2-0.9,0.2C453.1,356.7,451.8,364.3,456.3,378.5z"/>
						</g>
					</g>
					<g>
						<g>
							<g>
								<path class="st6" d="M455.1,359.2c0.1,0,0.3,1.1,0.5,2.8c0.2,1.7,0.5,4.1,0.7,6.8c0.2,2.7,0.3,5.1,0.3,6.8
									c0,1.8-0.1,2.8-0.2,2.8c-0.1,0-0.1-1.1-0.3-2.8c-0.1-2-0.3-4.3-0.5-6.8c-0.2-2.5-0.3-4.9-0.5-6.8
									C455.1,360.3,455.1,359.2,455.1,359.2z"/>
							</g>
						</g>
					</g>
					<g class="st13">
						<g>
							<path d="M456.3,378.5c0,0,6.2-14.8-1.6-24.5c-0.3-0.3-0.8-0.2-0.9,0.2C453.1,356.7,451.8,364.3,456.3,378.5z"/>
						</g>
					</g>
				</g>
				<g>
					<g>
						<g>
							<path class="st10" d="M437.2,414.2c0,0,4.9-15.3-3.6-24.3c-0.3-0.3-0.8-0.2-0.9,0.3C432.2,392.7,431.6,400.4,437.2,414.2z"/>
						</g>
					</g>
					<g>
						<g>
							<g>
								<path class="st6" d="M434.5,395c0.1,0,0.4,1,0.7,2.8c0.4,1.7,0.8,4.1,1.2,6.7c0.4,2.6,0.7,5.1,0.8,6.8
									c0.1,1.8,0.1,2.8,0.1,2.8c-0.1,0-0.2-1.1-0.5-2.8c-0.3-1.9-0.6-4.2-1-6.8c-0.4-2.5-0.7-4.8-1-6.8
									C434.6,396.1,434.4,395,434.5,395z"/>
							</g>
						</g>
					</g>
					<g class="st13">
						<g>
							<path d="M437.2,414.2c0,0,4.9-15.3-3.6-24.3c-0.3-0.3-0.8-0.2-0.9,0.3C432.2,392.7,431.6,400.4,437.2,414.2z"/>
						</g>
					</g>
				</g>
				<g>
					<g>
						<g>
							<path class="st10" d="M464.1,360.4c0,0,13.1-9.2,11.8-21.5c0-0.4-0.6-0.6-0.9-0.3C473.1,340.3,468,346,464.1,360.4z"/>
						</g>
					</g>
					<g class="st13">
						<g>
							<path d="M464.1,360.4c0,0,13.1-9.2,11.8-21.5c0-0.4-0.6-0.6-0.9-0.3C473.1,340.3,468,346,464.1,360.4z"/>
						</g>
					</g>
					<g>
						<g>
							<g>
								<path class="st6" d="M473.5,343.5c0.1,0-0.3,1-1.1,2.6c-0.7,1.6-1.8,3.7-3.1,6.1c-1.3,2.4-2.5,4.4-3.4,5.9
									c-0.9,1.5-1.6,2.3-1.7,2.3c-0.1,0,0.5-1,1.3-2.5c0.9-1.7,2.1-3.8,3.3-6c1.2-2.2,2.3-4.3,3.3-6
									C472.9,344.4,473.5,343.5,473.5,343.5z"/>
							</g>
						</g>
					</g>
				</g>
				<g>
					<g>
						<g>
							<path class="st10" d="M442.5,399.1c0,0,15.8-2.5,20.1-14.1c0.1-0.4-0.2-0.8-0.6-0.7C459.5,385,452.3,387.9,442.5,399.1z"/>
						</g>
					</g>
					<g class="st13">
						<g>
							<path d="M442.5,399.1c0,0,15.8-2.5,20.1-14.1c0.1-0.4-0.2-0.8-0.6-0.7C459.5,385,452.3,387.9,442.5,399.1z"/>
						</g>
					</g>
					<g>
						<g>
							<g>
								<path class="st6" d="M458.4,388c0.1,0.1-0.8,0.8-2.1,1.9c-1.4,1.1-3.3,2.6-5.5,4.1c-2.2,1.6-4.2,2.9-5.7,3.8
									c-1.5,0.9-2.5,1.4-2.5,1.3c0-0.1,0.8-0.7,2.3-1.7c1.6-1.1,3.5-2.5,5.6-3.9c2.1-1.5,4-2.8,5.6-4
									C457.5,388.6,458.4,388,458.4,388z"/>
							</g>
						</g>
					</g>
				</g>
			</g>
		</g>
		<g>
			<g>
				<polygon class="st9" points="427.4,428.2 422.8,459.4 451.6,459.4 447.8,428.2 				"/>
			</g>
		</g>
		<g>
			<g>
				<g>
					<path class="st6" d="M449,437.9c0,0.2-5.2,0.3-11.6,0.3c-6.4,0-11.6-0.1-11.6-0.3c0-0.2,5.2-0.3,11.6-0.3
						C443.8,437.6,449,437.7,449,437.9z"/>
				</g>
			</g>
		</g>
		<g>
			<g>
				<g>
					<path class="st6" d="M449.6,440.4c0,0.2-5.4,0.3-12,0.3c-6.6,0-12-0.1-12-0.3c0-0.2,5.4-0.3,12-0.3
						C444.2,440.1,449.6,440.2,449.6,440.4z"/>
				</g>
			</g>
		</g>
	</g>
</g>
<g id="Boxes">
	<g>
		<g>
			<path class="st6" d="M337.6,126.5c0,0-0.3,0-0.8,0c-0.5,0-1.3-0.1-2.3,0c-2,0.1-5,0.5-8.5,2c-3.5,1.5-7.6,4.1-10.8,8.4
				c-1.6,2.2-3,4.8-3.8,7.7c-0.8,3-1.1,6.2-0.7,9.6c0.4,3.4,1.5,6.9,3.3,10.1c0.9,1.6,2,3.1,3.4,4.5c1.3,1.4,2.9,2.7,4.6,3.6
				c1.7,0.9,3.7,1.5,5.8,1.5c2-0.1,4.1-0.8,5.6-2.3c1.5-1.5,2.2-3.6,2.2-5.8c0-2.2-0.7-4.3-2-6.1c-2.6-3.6-6.8-6.1-11.3-7.4
				c-4.5-1.3-9.5-1.3-14.2-0.2c-2.4,0.6-4.7,1.5-6.8,2.7c-2.2,1.2-4.1,2.8-5.9,4.6c-0.4,0.5-0.9,0.9-1.2,1.4l-1.1,1.5
				c-0.7,1.1-1.3,2.2-1.8,3.3c-1.1,2.3-1.8,4.8-2.2,7.4c-0.7,5.1-0.1,10.4,2,15c2,4.6,5.4,8.6,9.7,11c2.1,1.2,4.5,1.9,6.8,2.1
				c2.4,0.1,4.7-0.5,6.7-1.6c2-1.2,3.7-2.9,4.6-5c0.9-2.1,0.9-4.5,0.1-6.5c-0.7-2.1-2.1-3.9-3.8-5.3c-1.6-1.4-3.5-2.5-5.5-3.2
				c-4-1.3-8.3-1.2-12.2-0.2c-3.9,1-7.3,3-10,5.6c-2.7,2.6-4.6,5.7-5.7,8.9c-2.3,6.4-1.7,13,0.3,18c2,5,5.3,8.6,8.2,11
				c3,2.4,5.7,3.7,7.6,4.4c0.9,0.4,1.7,0.6,2.2,0.8c0.5,0.2,0.7,0.2,0.7,0.2s-0.3-0.1-0.8-0.2c-0.5-0.1-1.2-0.4-2.2-0.7
				c-1.9-0.7-4.6-2-7.7-4.3c-3-2.4-6.3-6-8.4-11c-2-5-2.7-11.7-0.3-18.2c1.1-3.2,3.1-6.4,5.8-9c2.7-2.6,6.2-4.6,10.1-5.7
				c3.9-1.1,8.3-1.2,12.4,0.2c2,0.7,4,1.8,5.7,3.3c1.7,1.5,3.1,3.3,3.9,5.5c0.8,2.2,0.8,4.7-0.1,6.9c-0.9,2.2-2.7,4-4.8,5.2
				c-2.1,1.2-4.6,1.8-7,1.7c-2.5-0.1-4.9-0.9-7.1-2.1c-4.4-2.4-7.8-6.5-9.9-11.2c-2.1-4.7-2.7-10.1-2.1-15.3
				c0.4-2.6,1.1-5.1,2.2-7.5c0.5-1.2,1.2-2.3,1.9-3.4l1.2-1.6c0.4-0.5,0.9-1,1.3-1.5c1.8-1.9,3.8-3.5,6-4.7c2.2-1.2,4.6-2.1,7-2.8
				c4.8-1.2,9.9-1.1,14.5,0.2c4.6,1.4,8.8,3.8,11.5,7.6c1.3,1.9,2.1,4.1,2.1,6.4c0,2.2-0.8,4.5-2.4,6.1c-1.6,1.6-3.8,2.3-5.9,2.4
				c-2.1,0.1-4.2-0.5-6-1.5c-1.8-1-3.4-2.3-4.7-3.7c-1.4-1.4-2.5-3-3.4-4.6c-1.9-3.3-2.9-6.8-3.4-10.2c-0.4-3.4-0.1-6.8,0.7-9.8
				c0.8-3,2.2-5.6,3.9-7.8c3.3-4.4,7.4-7,11-8.4c3.6-1.5,6.6-1.8,8.6-1.9c1-0.1,1.8,0,2.3,0C337.3,126.5,337.6,126.5,337.6,126.5z"
				/>
		</g>
		<rect x="230.8" y="226.6" class="st10" width="140.2" height="108.1"/>
		<g>
			<polygon class="st10" points="230.8,226.6 256.7,250.8 394.5,250.8 371,226.6 			"/>
			<g>
				<path class="st6" d="M230.8,226.6c2.5,0,60.4-0.1,140.2-0.3l0.1,0l0.1,0.1c7.5,7.7,15.3,15.7,23.3,23.9c0.1,0.1,0.2,0.2,0.2,0.2
					l0.4,0.4l-0.6,0c-56.5,0-106.7-0.1-137.8-0.1h-0.1l0,0C240.3,235.6,231.6,227.4,230.8,226.6c0.9,0.8,9.7,8.9,26,24l-0.1,0
					c31.2,0,81.3-0.1,137.8-0.1l-0.2,0.4c-0.1-0.1-0.2-0.2-0.2-0.2c-8-8.2-15.8-16.2-23.3-23.9l0.2,0.1
					C291.2,226.7,233.3,226.6,230.8,226.6z"/>
			</g>
		</g>
		<g>
			<path class="st6" d="M272.9,276.5c-1.5,0-2.8,1.3-2.9,2.8c0,1.5,1.3,2.9,2.8,2.9c1.5,0.1,2.9-1.2,3-2.7c0.1-1.5-1.2-2.9-2.7-3"/>
			<path class="st6" d="M306,276.5c-1.5,0-2.8,1.3-2.9,2.8c0,1.5,1.3,2.9,2.8,2.9c1.5,0.1,2.9-1.2,3-2.7s-1.2-2.9-2.7-3"/>
			<g>
				<path class="st6" d="M306.2,302.4c-0.1,0.1-0.4-2.7-2.8-6.2c-1.2-1.7-2.9-3.6-5.3-5.1c-2.3-1.5-5.3-2.6-8.5-2.7
					c-3.2-0.1-6.2,0.9-8.6,2.2c-2.4,1.4-4.3,3.1-5.6,4.8c-2.6,3.4-3,6.1-3.1,6.1c0,0,0-0.2,0.1-0.5c0.1-0.3,0.2-0.8,0.4-1.3
					c0.4-1.1,1.1-2.7,2.4-4.5c1.3-1.7,3.1-3.6,5.6-5c2.5-1.4,5.6-2.4,8.9-2.3c3.3,0.1,6.4,1.2,8.7,2.8c2.4,1.6,4.2,3.5,5.3,5.3
					c1.2,1.8,1.8,3.4,2.1,4.6c0.2,0.6,0.2,1,0.3,1.3C306.2,302.2,306.2,302.4,306.2,302.4z"/>
			</g>
		</g>
		<polygon class="st14" points="231.1,227.8 255.9,259.2 371,259.2 371,250.8 256.7,250.8 		"/>
		<g>
			<path class="st6" d="M343.3,334.5c-0.1,0-0.3-18.8-0.3-42c0-23.2,0.1-42,0.3-42c0.1,0,0.3,18.8,0.3,42
				C343.6,315.7,343.5,334.5,343.3,334.5z"/>
		</g>
		<rect x="353" y="310" class="st3" width="12.4" height="14"/>
		<g>
			<polygon class="st10" points="230.8,226.6 202,250.8 230.8,250.8 			"/>
			<g class="st15">
				<polygon points="230.8,226.6 202,250.8 230.8,250.8 				"/>
			</g>
		</g>
	</g>
	<g>
		<g>
			<rect x="213.9" y="334.7" class="st10" width="161.2" height="124.3"/>
			<rect x="213.9" y="334.7" class="st13" width="161.2" height="124.3"/>
			<g>
				<path class="st6" d="M334.7,458.2c-0.1,0-0.3-27.7-0.3-61.9c0-34.2,0.1-61.9,0.3-61.9s0.3,27.7,0.3,61.9
					C335,430.5,334.9,458.2,334.7,458.2z"/>
			</g>
			<rect x="349.1" y="430.8" class="st3" width="12.4" height="14"/>
			<rect x="263.1" y="335.1" class="st6" width="18.3" height="26.5"/>
			<rect x="263.1" y="432.2" class="st6" width="18.3" height="26.5"/>
		</g>
		<g>
			<path class="st6" d="M373.7,334.7c0,0-0.1,0-0.4,0c-0.3,0-0.7,0-1.2,0c-1.1,0-2.7,0-4.7,0c-4.1,0-9.9,0-17.1,0.1
				c-14.5,0-34.4,0-56.5,0.1c-22.1,0-42-0.1-56.5-0.1c-7.2,0-13.1-0.1-17.1-0.1c-2,0-3.6,0-4.7,0c-0.5,0-0.9,0-1.2,0
				c-0.3,0-0.4,0-0.4,0s0.1,0,0.4,0c0.3,0,0.7,0,1.2,0c1.1,0,2.7,0,4.7,0c4.1,0,9.9,0,17.1-0.1c14.5,0,34.4,0,56.5-0.1
				c22,0,42,0.1,56.5,0.1c7.2,0,13.1,0.1,17.1,0.1c2,0,3.6,0,4.7,0c0.5,0,0.9,0,1.2,0C373.6,334.7,373.7,334.7,373.7,334.7z"/>
		</g>
	</g>
</g>
<g id="Speech_Bubble">
	<g>
		<g>
			<path class="st6" d="M97.4,119.5c-1.2-0.3-6.7-1.7-17.6-4.3l0.1,0c-3.9,2.5-9.1,4.4-15.2,4.5c-3,0-6.2-0.4-9.4-1.4
				c-3.2-1-6.3-2.6-9.2-4.9c-5.7-4.4-10.1-11.4-11.1-19.6c-0.5-4-0.2-8.3,1.1-12.3c1.3-4,3.5-7.9,6.4-11.1c1.5-1.7,3.3-3.1,5.1-4.4
				c0.9-0.6,1.9-1.2,2.9-1.7l1.5-0.7l0.7-0.4l0.8-0.3c4.1-1.6,8.4-2.2,12.6-1.9c4.2,0.3,8.2,1.4,11.7,3.3c3.5,1.8,6.5,4.3,8.9,7.2
				c2.4,2.8,4.1,6,5.2,9.2c1.1,3.2,1.6,6.4,1.6,9.5c0,6.1-1.9,11.4-4.2,15.2l0-0.2C94.4,114,96.9,118.5,97.4,119.5
				c-0.6-1-3.1-5.4-8.2-14.1l0-0.1l0-0.1c2.3-3.8,4.1-9,4.1-15c0-3-0.6-6.2-1.6-9.3c-1.1-3.1-2.8-6.3-5.1-9c-2.3-2.8-5.3-5.2-8.7-7
				c-3.4-1.8-7.4-2.9-11.5-3.2c-4.1-0.3-8.4,0.3-12.4,1.9l-0.8,0.3l-0.7,0.4L51,64.8c-1,0.5-1.9,1.1-2.8,1.7c-1.8,1.3-3.5,2.7-5,4.3
				c-2.9,3.2-5.1,6.9-6.3,10.9c-1.2,4-1.6,8.1-1.1,12.1c0.9,8,5.3,14.9,10.8,19.2c2.8,2.2,5.9,3.8,9,4.8c3.1,1,6.3,1.4,9.2,1.4
				c6-0.1,11.1-2,15-4.4l0.1,0l0.1,0C90.7,117.7,96.3,119.2,97.4,119.5z"/>
		</g>
		<path class="st10" d="M62,77.3L62.9,92c0.1,1.2,1,2.2,2.2,2.2l0,0c1.3,0.1,2.4-0.9,2.5-2.1l1.6-14.7c0.1-1.1-0.8-2.1-1.9-2.1
			l-3.6,0C62.7,75.3,61.9,76.2,62,77.3z"/>
		<path class="st10" d="M69,102.4c-0.6,1.9-2.6,2.9-4.5,2.3c-1.9-0.6-2.9-2.6-2.3-4.5c0.6-1.9,2.6-2.9,4.5-2.3
			C68.6,98.5,69.6,100.6,69,102.4z"/>
	</g>
</g>
</svg>
