<?xml version="1.0" encoding="utf-8"?>
<!-- Generator: Adobe Illustrator 24.0.1, SVG Export Plug-In . SVG Version: 6.00 Build 0)  -->
<svg version="1.1" xmlns="http://www.w3.org/2000/svg" xmlns:xlink="http://www.w3.org/1999/xlink" x="0px" y="0px"
	 viewBox="0 0 500 500" style="enable-background:new 0 0 500 500;" xml:space="preserve">
<style type="text/css">
	.st0{fill:#F5F5F5;}
	.st1{fill:#E0E0E0;}
	.st2{fill:#F0F0F0;}
	.st3{fill:#FAFAFA;}
	.st4{fill:#FFFFFF;}
	.st5{fill:#EBEBEB;}
	.st6{fill:none;stroke:#27DEBF;stroke-width:0.8828;stroke-miterlimit:10;}
	.st7{fill:none;stroke:#27DEBF;stroke-width:0.8828;stroke-linecap:round;stroke-linejoin:round;stroke-miterlimit:10;}
	.st8{fill:#263238;}
	.st9{fill:#37474F;}
	.st10{fill:#455A64;}
	.st11{fill:none;stroke:#FAFAFA;stroke-width:0.7403;stroke-miterlimit:10;}
	.st12{opacity:0.2;}
	.st13{fill:none;stroke:#FAFAFA;stroke-width:0.7403;stroke-linecap:round;stroke-linejoin:round;stroke-miterlimit:10;}
	.st14{opacity:0.1;}
	.st15{fill:#27DEBF;}
	.st16{opacity:0.5;}
	.st17{opacity:0.23;}
	.st18{opacity:0.38;}
	.st19{opacity:0.4;}
	.st20{opacity:0.3;}
	.st21{opacity:0.45;}
	.st22{opacity:0.7;}
	.st23{opacity:0.7;fill:#FFFFFF;}
	.st24{opacity:0.65;fill:#FFFFFF;}
	.st25{fill:#FFA8A7;}
	.st26{fill:#F28F8F;}
</style>
<g id="Floor">
	<ellipse id="Floor_7_" class="st0" cx="253.7" cy="341.8" rx="235.3" ry="135.8"/>
</g>
<g id="Shadow">
	<ellipse id="Shadow_29_" class="st1" cx="408.9" cy="369.8" rx="66.7" ry="38.5"/>
	<polygon id="Shadow_28_" class="st1" points="239.9,390.6 164.7,347.1 250.7,297.5 326,340.9 	"/>
	<polygon id="Shadow_27_" class="st1" points="34.9,377.2 132,433.2 213.5,386.2 116.4,330.2 	"/>
</g>
<g id="Shelf_1_">
	<g id="Shelf_2_">
		<g id="Shelf">
			<path class="st2" d="M178.5,113.6v-5.5h0c0-0.5-0.4-1.1-1.1-1.5l-33.3-19.1c-1.4-0.8-3.7-0.8-5.1,0l-95.8,55
				c-0.7,0.4-1.1,0.9-1.1,1.5h0v5.5h0c0,0.5,0.4,1.1,1.1,1.5l33.3,19.1c1.4,0.8,3.7,0.8,5.1,0l95.8-55
				C178.1,114.7,178.5,114.2,178.5,113.6L178.5,113.6z"/>
			<path class="st3" d="M43.2,145.4l33.3,19.1c1.4,0.8,3.7,0.8,5.1,0l95.8-55c1.4-0.8,1.4-2.1,0-2.9l-33.3-19.1
				c-1.4-0.8-3.7-0.8-5.1,0l-95.8,55C41.8,143.3,41.8,144.6,43.2,145.4z"/>
			<path class="st1" d="M79.1,165.2v5.5c-0.9,0-1.8-0.2-2.6-0.6L43.2,151c-0.7-0.4-1.1-1-1.1-1.5h0V144h0c0-0.2,0.1-0.4,0.2-0.6
				c-0.4,0.7-0.1,1.5,0.9,2.1l33.3,19.1C77.2,165,78.1,165.2,79.1,165.2z"/>
		</g>
		<g id="Book_2_">
			<g id="XMLID_866_">
				<polygon id="XMLID_871_" class="st1" points="97,118.5 125.2,134.6 171.8,107.9 143.6,91.8 				"/>
				<path id="XMLID_870_" class="st4" d="M125.5,133.4l-27.2-15.6c0.7-2,0.7-4.4-0.1-7.1l27.1,15.5
					C125.2,126.2,125.7,127.9,125.5,133.4z"/>
				<path id="XMLID_869_" class="st5" d="M123.8,124c1.4,0.8,2.6,2.8,2.6,4.5v5.3c0,1.7-1.2,2.3-2.6,1.5L97,119.8l0-1.3l26.5,15.1
					c0.9,0.5,1.6,0.1,1.6-0.9l0-4.9c0-1-0.7-2.2-1.6-2.7L97,110v-1.5L123.8,124z"/>
				<path id="XMLID_868_" class="st3" d="M97,108.6l46.6-26.8l26.8,15.4c1.4,0.8,2.6,2.8,2.6,4.5l0,5.3c0,0.8-0.3,1.4-0.8,1.7
					l-46.6,26.8c0.5-0.3,0.8-0.9,0.8-1.7l0-5.3c0-1.7-1.2-3.7-2.6-4.5L97,108.6z"/>
				<path id="XMLID_867_" class="st2" d="M125.7,125.9c0.5,0.8,0.8,1.7,0.8,2.6l0,5.3c0,0.8-0.3,1.4-0.8,1.7l46.6-26.8
					c0.5-0.3,0.8-0.9,0.8-1.7l0-5.3c0-0.8-0.3-1.7-0.8-2.6L125.7,125.9z"/>
			</g>
		</g>
		<g id="Book_1_">
			<polygon id="XMLID_2995_" class="st5" points="68.3,78.5 68,82 99.5,98.9 100.2,96.9 			"/>
			<polygon id="XMLID_2993_" class="st4" points="99.8,97.7 69.3,80.1 64,83.1 95.1,101.4 			"/>
			<path id="XMLID_2991_" class="st1" d="M89.4,99.5l-3,35.4c0,0.7,0.5,1.6,1.1,2l17.7,10.3c0.3,0.1,0.6,0.2,0.9,0.3l-11-44.8
				c-0.3,0-0.7-0.1-0.9-0.3l-1.3-0.7L89.4,99.5z"/>
			<path id="XMLID_2990_" class="st2" d="M96.4,102.2l3.2-2.7l2.3-2c0.2-0.4,0.5-0.7,0.4-1l10.9,44.5l0,0c0.2,0.3,0.2,1-0.2,1.3
				l-5.5,4.7c-0.4,0.2-0.9,0.3-1.3,0.3l-11-44.8C95.6,102.5,96.1,102.5,96.4,102.2z"/>
			<path id="XMLID_2988_" class="st3" d="M101.9,96.2c0.6,0.4,0.5,0.8,0,1.3l-5.5,4.7c-0.6,0.4-1.6,0.4-2.3,0l-4.8-2.8
				c-0.6-0.4-0.7-0.9-0.2-1.2c0.5-0.3,1.4-0.2,2,0.1l3.8,2.2c0.2,0.1,0.5,0.1,0.8,0l4-3.5c0.2-0.1,0.2-0.3,0-0.4L68.3,78.5l1.5-0.9
				L101.9,96.2z"/>
		</g>
		<g id="Book">
			<g id="XMLID_777_">
				<polygon id="XMLID_856_" class="st5" points="59.2,80.2 89.2,97.5 89.2,154.7 59.2,137.3 				"/>
				<path id="XMLID_854_" class="st4" d="M88.2,98.5L59.2,81.8c-1.5,1.7-3.7,2.9-6.6,3.6L81.3,102C81.3,102,83.2,101.6,88.2,98.5z"
					/>
				<path id="XMLID_852_" class="st3" d="M78.5,101.9c1.5,0.9,4,0.9,5.6,0l4.9-2.8c1.5-0.9,1.5-2.3,0-3.2L60.4,79.5l-1.2,0.7
					l28.2,16.3c0.9,0.5,0.9,1.4,0,1.9l-4.5,2.6c-0.9,0.5-2.4,0.5-3.4,0L51.3,84.7l-1.4,0.8L78.5,101.9z"/>
				<path id="XMLID_849_" class="st5" d="M49.9,85.5v57.1l28.6,16.4c1.5,0.9,4,0.9,5.6,0l4.9-2.8c0.8-0.4,1.2-1,1.2-1.6V97.5
					c0,0.6-0.4,1.2-1.2,1.6l-4.9,2.8c-1.5,0.9-4,0.9-5.6,0L49.9,85.5z"/>
				<path id="XMLID_801_" class="st2" d="M81.3,102.6c1,0,2-0.2,2.8-0.7l4.9-2.8c0.8-0.4,1.2-1,1.2-1.6v57.1c0,0.6-0.4,1.2-1.2,1.6
					l-4.9,2.8c-0.8,0.4-1.8,0.7-2.8,0.7V102.6z"/>
			</g>
		</g>
	</g>
</g>
<g id="Plants_2_">
	<g id="Plants_5_">
		<path class="st6" d="M323,310c-0.7-12-6-36,1-58.1c3.6-11.3,11.7-23.2,23.9-26.5c4.3-1.2,9.6-1,11.7,3.9c0.4,0.8,0.6,1.7,0.6,2.6
			c0.3,3.7-1.4,7-3.3,10.1c-4.3,7-9.8,13.1-14.1,20.1c-2.3,3.7-4.3,7.5-6,11.5"/>
		<path class="st6" d="M322.7,317.8c0,1.4,0.4,3.2,0.1,4.6c-0.1,0.4-0.2,0.9,0,1.3c0.2,0.4,0.7,0.6,1,0.3c0.2-0.2,0.5-1.8,0.6-2.1
			c0.3-0.8,0.8-1.6,1.2-2.4c0.8-1.6,1.6-3.2,2.5-4.8c1.9-3.2,3.9-6.3,6.2-9.3c4.5-5.8,9.7-11,15.5-15.5c6.3-4.8,13.3-8.8,19.4-13.8
			c1.8-1.5,3.6-3.1,4.4-5.4c1.2-3.3-0.4-7.2-3.1-9.3c-2.7-2.2-6.4-2.9-9.9-2.6c-3.3,0.2-7.8,1.7-11.5,3.7
			c-7.5,4.1-12.7,10.4-16.8,17.6c-5.5,9.6-8.7,20.5-9.5,31.5C322.7,313.7,322.7,315.7,322.7,317.8z"/>
		<path class="st7" d="M365.6,264.8c-14.2,4.1-35.3,20.4-42.9,50.8"/>
		<path class="st7" d="M351,231.8c-7.7,6.1-26,25.5-28.3,56.8"/>
	</g>
</g>
<g id="Bookshelf_1_">
	<g id="Bookshelf_2_">
		<g>
			<path class="st8" d="M319.9,165.1L264.3,133c-1.2-0.7-2.2-0.7-3-0.3c-0.7,0.4-3.3,1.9-4,2.3c-0.8,0.4-1.3,1.4-1.3,2.8l0,152.2
				c0,2.7,1.9,6,4.3,7.4l55.6,32.1c1.2,0.7,2.2,0.7,3,0.3c0.7-0.4,3.3-1.9,4-2.3c0.8-0.4,1.2-1.4,1.2-2.8V172.5
				C324.2,169.8,322.3,166.5,319.9,165.1z"/>
			<g>
				<path class="st8" d="M268,292.6l-4,2.3l0,12.7c0,0.7,0.5,1.5,1.1,1.9l1.9,1.1c0.6,0.3,1.5,0.3,2.1,0l1.9-1.1
					c0.6-0.3,1.2-1.1,1.5-1.8l3.6-10.4L268,292.6z"/>
				<path class="st9" d="M264,307.6c0,0.7,0.5,1.5,1.1,1.9l1.9,1.1c0.6,0.3,1.2,0.1,1.5-0.5l3.6-10.4l-8-4.6L264,307.6z"/>
			</g>
			<g>
				<path class="st8" d="M308.1,315.7l-4,2.3l0,12.7c0,0.7,0.5,1.5,1.1,1.9l1.9,1.1c0.6,0.3,1.5,0.3,2.1,0l1.9-1.1
					c0.6-0.3,1.2-1.1,1.5-1.8l3.6-10.4L308.1,315.7z"/>
				<path class="st9" d="M304.1,330.7c0,0.7,0.5,1.5,1.1,1.9l1.9,1.1c0.6,0.3,1.2,0.1,1.5-0.5l3.6-10.4l-8-4.6L304.1,330.7z"/>
			</g>
			<path class="st9" d="M260.6,135.4l55.6,32.1c2.4,1.4,4.3,4.7,4.3,7.4v152.2c0,1.4-0.5,2.3-1.3,2.8c-0.8,0.4-1.8,0.4-3-0.3
				l-55.6-32.1c-2.4-1.4-4.3-4.7-4.3-7.4l0-152.2c0-1.4,0.5-2.3,1.3-2.8C258.3,134.7,259.4,134.7,260.6,135.4z"/>
		</g>
		<g id="Bottom_1_">
			<polygon class="st10" points="179.8,343.5 240,378.2 324.2,329.6 320.2,327.3 260,292.6 179.8,338.8 			"/>
			<polygon class="st8" points="240,378.2 240,373.6 324.2,325 324.2,329.6 			"/>
		</g>
		<g>
			<path class="st11" d="M240,371.3c11.2-17,10.6-47.1,9.7-52.2c0,0,4.7,31.8,10.6,40.9"/>
			<path class="st11" d="M251.7,330.6c1.9,9.3,23.9,15.8,23.9,15.8"/>
			<path class="st11" d="M249.5,339.9c0.6-1.5,3.7-1.7,4.2,0.7c0,0,0.4-4.5,2.9-3.2"/>
			<path class="st11" d="M248.7,346.4c1.1-2.4,5.3-3.7,7.1,2c0,0,0.3-10.3,7.1-7.2"/>
			<path class="st11" d="M246.7,355.5c2.4-4.6,8.9-6.4,10.6-2.2c0-5.2,6-11.8,13.3-8.6"/>
			<path class="st11" d="M242.7,366.6c2.8-5.1,9.6-14.2,15.6-10.5"/>
		</g>
		<g>
			<polygon class="st8" points="316.1,278.7 316.1,283.3 240,327.3 179.8,292.6 179.8,287.9 256,243.9 			"/>
			<polygon class="st10" points="316.1,278.7 240,322.6 179.8,287.9 256,243.9 			"/>
		</g>
		<g>
			<polygon class="st8" points="316.1,227.7 316.1,232.4 240,276.3 179.8,241.6 179.8,237 256,193 			"/>
			<polygon class="st10" points="316.1,227.7 240,271.7 179.8,237 256,193 			"/>
		</g>
		<g id="Side_1_">
			<path class="st8" d="M239.7,211.3l-55.6-32.1c-1.2-0.7-2.2-0.7-3-0.3c-0.7,0.4-3.3,1.9-4,2.3c-0.8,0.4-1.3,1.4-1.3,2.8l0,152.2
				c0,2.7,1.9,6,4.3,7.4l55.6,32.1c1.2,0.7,2.2,0.7,3,0.3c0.7-0.4,3.3-1.9,4-2.3c0.8-0.4,1.2-1.4,1.2-2.8V218.7
				C244,216,242.1,212.7,239.7,211.3z"/>
			<polygon class="st12" points="240,234.7 244,232.4 244,218.5 239.9,220.8 			"/>
			<polygon class="st12" points="320.2,188.4 324.2,186.1 324.2,172.2 320.2,174.5 			"/>
			<g>
				<path class="st8" d="M187.8,338.8l-4,2.3l0,12.7c0,0.7,0.5,1.5,1.1,1.9l1.9,1.1c0.6,0.3,1.5,0.3,2.1,0l1.9-1.1
					c0.6-0.3,1.2-1.1,1.5-1.8l3.6-10.4L187.8,338.8z"/>
				<path class="st9" d="M183.8,353.8c0,0.7,0.5,1.5,1.1,1.9l1.9,1.1c0.6,0.3,1.2,0.1,1.5-0.5l3.6-10.4l-8-4.6L183.8,353.8z"/>
			</g>
			<g>
				<path class="st8" d="M227.9,361.9l-4,2.3l0,12.7c0,0.7,0.5,1.5,1.1,1.9l1.9,1.1c0.6,0.3,1.5,0.3,2.1,0l1.9-1.1
					c0.6-0.3,1.2-1.1,1.5-1.8l3.6-10.4L227.9,361.9z"/>
				<path class="st9" d="M223.9,376.9c0,0.7,0.5,1.5,1.1,1.9l1.9,1.1c0.6,0.3,1.2,0.1,1.5-0.5l3.6-10.4l-8-4.6L223.9,376.9z"/>
			</g>
			<path class="st9" d="M180.1,181.6l55.6,32.1c2.4,1.4,4.3,4.7,4.3,7.4v152.2c0,1.4,0,5,0,5s-3.1-1.8-4.3-2.5l-55.6-32.1
				c-2.4-1.4-4.3-4.7-4.3-7.4l0-152.2c0-1.4,0.5-2.3,1.3-2.8C177.8,180.9,178.9,180.9,180.1,181.6z"/>
			<path class="st12" d="M235.7,213.7l-55.6-32.1c-1.2-0.7-2.2-0.7-3-0.3c-0.8,0.4-1.3,1.4-1.3,2.8l0,13.6l64.2,37v-13.6
				C240,218.3,238,215,235.7,213.7z"/>
		</g>
		<g>
			<polyline class="st13" points="268,206.9 312.1,181.4 312.1,227.7 			"/>
			<polyline class="st13" points="304.1,216.2 312.1,181.4 296.1,209.2 			"/>
			<line class="st13" x1="312.1" y1="181.4" x2="288.1" y2="204.6"/>
			<path class="st13" d="M312.1,220.3c0-6.5-7.4-6.9-7.4-6.9c0.5-2,0-5.1-2.4-7.2c-2.4-2-4-0.9-4.5-0.1c0,0,0.5-6-4.7-6.5
				c0,0,3.4-6.3,0-7.3"/>
			<path class="st13" d="M312.1,210.4c-0.3-3.3-2.8-7.5-5.4-5.5c0,0,0.7-7.2-4.5-6.3c0,0,2.4-6.7-2.7-5.1c0,0,3.7-4.6,0.8-5.3"/>
		</g>
		<g id="Top_1_">
			<path class="st9" d="M333.7,165.2c0-0.9-0.6-1.8-1.8-2.5l-59.6-34.4c-2.4-1.4-6.2-1.4-8.5,0l-91.7,52.9c-1.2,0.7-1.8,1.6-1.8,2.5
				c0,0.8,0,3.8,0,4.6c0,0.9,0.6,1.8,1.8,2.5l59.6,34.4c2.4,1.4,6.2,1.4,8.5,0l91.7-52.9c1.2-0.7,1.8-1.6,1.8-2.5
				C333.7,169,333.7,166.1,333.7,165.2z"/>
			<path class="st10" d="M231.7,220.6l-59.6-34.4c-2.4-1.4-2.4-3.6,0-4.9l91.7-52.9c2.4-1.4,6.2-1.4,8.5,0l59.6,34.4
				c2.4,1.4,2.4,3.6,0,4.9l-91.7,52.9C237.9,222,234,222,231.7,220.6z"/>
		</g>
		<g id="Shadows_1_">
			<polygon class="st14" points="320.2,179.1 292.1,213.8 244,241.6 244,223.1 			"/>
			<polygon class="st14" points="316.1,232.4 292.1,264.8 244,292.6 244,274 			"/>
			<polygon class="st14" points="316.1,283.3 292.1,315.7 244,343.5 244,325 			"/>
		</g>
	</g>
</g>
<g id="Box_1_">
	<g id="Box_2_">
		<g id="XMLID_820_">
			<polygon id="XMLID_848_" class="st15" points="205.8,384.4 132,427 49,379 122.7,336.4 			"/>
			<polygon id="XMLID_846_" class="st16" points="205.8,384.4 132,427 49,379 122.7,336.4 			"/>
			<polygon id="XMLID_845_" class="st15" points="122.7,278.7 122.7,336.4 49,379 49,321.2 			"/>
			<polygon id="XMLID_844_" class="st17" points="122.7,278.7 122.7,336.4 49,379 49,321.2 			"/>
			<polygon id="XMLID_843_" class="st15" points="132,369.3 132,427 49,379 49,321.2 			"/>
			<polygon id="XMLID_842_" class="st18" points="132,369.3 132,427 49,379 49,321.2 			"/>
			<polygon id="XMLID_841_" class="st15" points="205.8,326.7 205.8,384.4 122.7,336.4 122.7,278.7 			"/>
			<polygon id="XMLID_840_" class="st19" points="205.8,326.7 205.8,384.4 122.7,336.4 122.7,278.7 			"/>
			<polygon id="XMLID_839_" class="st15" points="205.8,384.4 205.8,326.7 132,369.3 132,427 			"/>
			<polygon id="XMLID_838_" class="st17" points="205.8,384.4 205.8,326.7 132,369.3 132,427 			"/>
			<polygon id="XMLID_830_" class="st15" points="122.7,278.7 122.8,246.7 205.7,294.8 205.8,326.7 			"/>
			<polygon id="XMLID_829_" class="st12" points="122.7,278.7 122.8,246.7 205.7,294.8 205.8,326.7 			"/>
			<polygon id="XMLID_828_" class="st15" points="132,369.3 138.9,341.3 212,299.1 205.8,326.7 			"/>
			<polygon id="XMLID_827_" class="st20" points="132,369.3 138.9,341.3 212,299.1 205.8,326.7 			"/>
			<polygon id="XMLID_825_" class="st15" points="49,321.2 40.2,292.2 113.9,249.7 122.7,278.7 			"/>
			<polygon id="XMLID_824_" class="st14" points="49,321.2 40.2,292.2 113.9,249.7 122.7,278.7 			"/>
			<polygon id="XMLID_823_" class="st15" points="49,321.2 31.6,297.3 114.7,345.3 132,369.3 			"/>
			<polygon id="XMLID_821_" class="st21" points="49,321.2 31.6,297.3 114.7,345.3 132,369.3 			"/>
		</g>
		<g id="XMLID_809_" class="st22">
			<g id="XMLID_815_">
				<g id="XMLID_818_">
					<path id="XMLID_819_" class="st4" d="M153.7,409.9c-0.3,0-0.5-0.2-0.5-0.5v-10.2c0-0.2,0.2-0.5,0.5-0.5c0.3,0,0.5,0.2,0.5,0.5
						v10.2C154.2,409.7,154,409.9,153.7,409.9z"/>
				</g>
				<g id="XMLID_816_">
					<path id="XMLID_817_" class="st4" d="M152.4,402.8c-0.1,0-0.1,0-0.2,0c-0.2-0.1-0.3-0.4-0.2-0.6l1.6-3.7l1.8,2.1
						c0.2,0.2,0.1,0.5,0,0.6c-0.2,0.2-0.5,0.1-0.6,0l-0.9-1l-1,2.4C152.8,402.7,152.6,402.8,152.4,402.8z"/>
				</g>
			</g>
			<g id="XMLID_810_">
				<g id="XMLID_813_">
					<path id="XMLID_814_" class="st4" d="M157.9,407.5c-0.3,0-0.5-0.2-0.5-0.5v-10.2c0-0.2,0.2-0.5,0.5-0.5s0.5,0.2,0.5,0.5V407
						C158.4,407.3,158.2,407.5,157.9,407.5z"/>
				</g>
				<g id="XMLID_811_">
					<path id="XMLID_812_" class="st4" d="M156.6,400.4c-0.1,0-0.1,0-0.2,0c-0.2-0.1-0.3-0.4-0.2-0.6l1.6-3.7l1.8,2.1
						c0.2,0.2,0.1,0.5,0,0.6c-0.2,0.2-0.5,0.1-0.6,0l-0.9-1l-1,2.4C156.9,400.3,156.8,400.4,156.6,400.4z"/>
				</g>
			</g>
		</g>
		<g id="XMLID_802_" class="st22">
			<g id="XMLID_807_">
				<path id="XMLID_808_" class="st4" d="M141.7,416.8c-0.2,0-0.3,0-0.5-0.1c-0.3-0.2-0.5-0.6-0.5-1.1v-1.2c0-0.2,0.2-0.5,0.5-0.5
					c0.3,0,0.5,0.2,0.5,0.5v1.2c0,0.2,0.1,0.3,0.1,0.3c0,0,0.1,0,0.3-0.1c0.4-0.2,0.8-1.1,0.8-2v-5.2c0-0.2,0.2-0.5,0.5-0.5
					c0.3,0,0.5,0.2,0.5,0.5v5.2c0,1.2-0.6,2.4-1.3,2.8C142.1,416.7,141.9,416.8,141.7,416.8z"/>
			</g>
			<g id="XMLID_803_">
				<path id="XMLID_804_" class="st4" d="M136.9,412.6v-0.8c0-3.7,2.6-8.2,5.8-10c1.6-0.9,3.2-1.1,4.4-0.4c1.2,0.7,1.9,2.1,1.9,4
					v0.3L136.9,412.6z M145.4,401.8c-0.7,0-1.5,0.2-2.3,0.7c-2.7,1.6-5,5.2-5.3,8.4l10.2-5.9c-0.1-1.4-0.5-2.5-1.4-3
					C146.3,401.9,145.8,401.8,145.4,401.8z"/>
			</g>
		</g>
		<polygon class="st23" points="31.6,297.3 114.7,345.3 132,369.3 113.8,346.2 		"/>
		<polygon class="st23" points="205.8,326.7 132,369.3 132,427 133.4,370.5 		"/>
	</g>
</g>
<g id="Moth_1_">
	<g id="Moth_2_">
		<g>
			<path class="st1" d="M97.5,303.6c7.6-1.1,14.6-6,19-12.2c2.1-2.9,3.6-6.1,4.5-9.5c0.8-3.1,1.3-6.7,0.5-9.9
				c-1.4-5.5-6.5-8.7-11.8-9.4c-2.7-0.3-5.5-0.1-8.1,0.8c-2.8,1-5,2.7-6.7,5c-0.9,1.2-1.8,2.8-1.8,4.3c0,1.4,0.9,2.3,2.2,2.5
				c1.6,0.3,3.2-0.4,4.6-1.2c1.7-0.9,3.1-2.2,4.3-3.6c2.4-3,4.5-6.7,5.5-10.5c0.9-3.2,0.7-6.8,0-10.1c-0.7-3.3-2.1-6.7-4.5-9.2
				c-2.6-2.6-6.2-3.8-9.7-4.3c-3.6-0.5-7.3-0.1-10.7,1c-1.5,0.5-3,1.2-4.1,2.3c-0.9,0.8-1.8,2.1-1.5,3.4c0.4,1.4,2.2,1.9,3.5,1.7
				c1.9-0.2,3.7-1.4,5-2.7c1.5-1.4,2.8-3.2,3.8-5c0.7-1.3,1.2-2.8,1.1-4.3c-0.1-6.3-7.1-10.4-12.6-11.6c-1.5-0.3-3-0.4-4.5-0.3
				c-0.5,0-0.2,0.8,0.2,0.8c2.9-0.2,5.9,0.6,8.4,1.9c2.5,1.2,4.8,3.1,6.2,5.5c1.4,2.5,1.2,5.3-0.2,7.7c-1,1.7-2.2,3.3-3.6,4.6
				c-1.2,1.1-3,2.3-4.7,2.2c-0.5,0-1.1-0.3-1.3-0.8c-0.2-0.7,0.3-1.4,0.6-1.8c0.8-1,2-1.6,3.2-2.1c2.9-1.3,6.3-1.7,9.5-1.6
				c3.3,0.2,6.7,1,9.3,3c2.5,1.9,4,4.8,4.9,7.7c0.9,3,1.3,6.4,0.9,9.5c-0.4,3.2-2,6.3-3.6,9c-1.9,3.1-4.2,6-7.7,7.2
				c-0.9,0.3-2.7,0.8-3-0.5c-0.3-1.2,0.6-2.8,1.3-3.8c1.4-2.2,3.4-3.9,5.8-4.9c2.3-0.9,4.8-1.3,7.3-1.1c4.7,0.4,9.5,2.8,11.1,7.5
				c1,2.7,0.8,5.8,0.3,8.6c-0.6,3.1-1.7,6.1-3.3,8.8c-3.4,5.9-8.7,10.3-14.9,12.9c-1.5,0.6-3,1.2-4.6,1.7
				C97.3,303.2,97.4,303.6,97.5,303.6L97.5,303.6z"/>
		</g>
		<g>
			<path class="st15" d="M65.7,216.8c-4.1-0.3-9.5,2.9-7.6,5.2c2,2.3,7.2-1.4,7.2-1.4s-0.5,4.7,1.2,5.2c1.7,0.5,4-3.9,2.3-6.7
				c0,0,2.6,1.1,5-0.6s-0.1-3.5-3.6-3.2c0,0,2.4-8-2.5-6.5C65.4,209.4,64.5,212.3,65.7,216.8z"/>
			<path class="st24" d="M65.7,216.8c-4.1-0.3-9.5,2.9-7.6,5.2c2,2.3,7.2-1.4,7.2-1.4s-0.5,4.7,1.2,5.2c1.7,0.5,4-3.9,2.3-6.7
				c0,0,2.6,1.1,5-0.6s-0.1-3.5-3.6-3.2c0,0,2.4-8-2.5-6.5C65.4,209.4,64.5,212.3,65.7,216.8z"/>
			<path class="st10" d="M69.5,218.5c-0.2-0.2-0.5-0.4-0.7-0.6c-0.4-0.3-0.7-0.5-1.1-0.8c-0.3-0.2-0.7-0.5-1.1-0.7
				c-0.2-0.1-0.4-0.2-0.7-0.3c-0.3-0.2-0.6-0.2-1-0.2c-0.4,0-0.7,0.4-0.4,0.8c0.3,0.4,0.7,0.5,1.1,0.7c0.2,0.1,0.4,0.2,0.5,0.3
				c0.4,0.2,0.7,0.5,1,0.7c0.3,0.3,0.7,0.5,1,0.7c0.5,0.4,1.1,0.8,1.7,1c0.1,0,0.1,0,0.2,0C70.5,219.7,69.8,218.8,69.5,218.5z"/>
		</g>
	</g>
</g>
<g id="Character">
	<g id="Character_7_">
		<path class="st25" d="M388.3,106.8c-4.4,5.9-10.2,38.2-12.4,48.6c-10.6-0.3-24.9-0.8-30.2-1.4c-6-0.6-18.8-1.9-25.1-1
			c-15.6,2-15,12.3-14.6,14.9c0.4,3.1,2.6,4.5,11,2.6c1.9-0.4,3.8-0.6,5.7-0.7c0.8,0,2.5-0.4,3.2,0.3c1,1-1.9,2.7-2.6,3.1
			c-1.1,0.7-2.3,1.6-2.5,2.9c-0.1,0.5,0,1.1,0.4,1.3c0.4,0.2,0.8,0.1,1.3,0c3.8-0.9,7.5-2.3,11-4.2c1.3-0.7,2.7-1.5,4.1-2
			c2.2-0.7,4.4-0.3,6.6-0.3c4.7,0,29.5,2.5,40.5,3.6c7.6,0.8,8.4-6.8,11.1-14.4c3.3-9.5,10.9-59.3,10.9-59.3
			C398.8,99.9,393.5,99.8,388.3,106.8z"/>
		<path class="st9" d="M406.6,100.2c-3.7-0.7-12-1.7-16.5,3.3c-4.5,5-5.6,10.4-7.6,18c-2,7.6-5.5,21.4-5.5,21.4s5.8,8.4,24.1,6
			L406.6,100.2z"/>
		<g id="XMLID_780_">
			<polygon id="XMLID_800_" class="st25" points="452.4,364.6 439.6,364.7 435.9,336.8 452.1,336.2 			"/>
			<path id="XMLID_799_" class="st25" d="M409.9,350.7c-2.2,3.8-9.2,3.5-15,2.1l-0.7-27.4l17.2-0.7L409.9,350.7z"/>
			<path id="XMLID_798_" class="st15" d="M451.6,188.7c0.5,11.8-1.1,81.9-1.1,81.9c0.4,3.4,3.9,9.3,4.7,21.6
				c1.1,17.8-2.6,55.8-2.6,55.8s-7.3,3.8-15.3,0.9c0,0-8.1-55-11-72.6c-2.5-15.3-5.8-56.3-5.8-56.3l-6.3,52.6c0,0,1.8,8.3,1.4,18.9
				c-0.3,8.2-4.9,47.9-4.9,47.9s-7.8,2.9-16.4,0.4c0,0-3.8-61.6-4.3-69.1c-0.5-8.5-0.2-83.7-0.2-83.7L451.6,188.7z"/>
			<path id="XMLID_796_" class="st12" d="M420.5,220c0,0-11.2-3.2-18.8-10c0,0,3.6,6.1,13.7,11.5l-0.6,45.9L420.5,220z"/>
			<g>
				<path id="XMLID_795_" class="st8" d="M425,387.9c-0.4,0.4-0.2,3.2,0.3,3.9c0.5,0.8,3.6,3.2,8.9,3.3c5.1,0.2,9.6-0.7,12.4-2.7
					c2.9-2,4.2-4.1,4.4-7c0.2-2.9-0.3-5.7,1-7.9c1.2-2.1,3.1-4.5,3.5-5.6c0.9-2.5-0.2-5.9-0.2-5.9L425,387.9z"/>
				<path id="XMLID_794_" class="st10" d="M437.8,362.2c0,1.1-0.1,2.1-0.5,3.2c-0.6,2.3-1.7,4.4-2.8,6.5c-0.6,1.1-1.2,2.1-2,3.1
					c-1.5,1.9-3.3,3.4-4.8,5.3c-1.5,1.8-2.8,4-2.9,6.3c-0.1,4,4.3,5.2,7.6,5.6c3.6,0.5,7.3,0.2,10.7-1c3.8-1.2,6.5-4.3,6.9-8.2
					c0.1-1.1,0-2.2,0.1-3.3c0.2-2.5,1.4-4.9,2.8-7.1c0.8-1.3,1.7-2.5,2.2-3.9c0.9-2.5,0-5.2-0.8-7.6c-0.7-2.1-1.4-4.5-2.1-4.2
					c0,1.1,0,1.2-0.7,2c-1,1-0.9,2.4-2,3.3c0.4-1.3,0.5-1.9,0.6-2.8c0.1-0.3-0.1-0.9-0.3-1.1c-0.3-0.3-0.8-0.5-1.2-0.6
					c-1.6-0.5-3.2-0.8-4.9-0.9c-1.5-0.1-3.2-0.2-4.7,0.1c-0.5,0.1-0.9,0.4-1.2,0.7c-0.3,0.4-0.3,0.7-0.4,1.4
					C437.7,359.5,437.8,361.1,437.8,362.2z"/>
				<path id="XMLID_793_" class="st0" d="M434,372.7c1.4-1.2,4.7-1.3,6.6-1.2c2.3,0.2,4.1,0.9,5.2,1.6c0.5,0.3,1.1,0.2,1.5-0.2l0,0
					c0.5-0.5,0.4-1.3-0.2-1.7c-1.1-0.8-3.2-1.8-5.9-1.9c-4.5-0.1-5.7,0.7-5.7,0.7S433.5,371.4,434,372.7z"/>
				<path id="XMLID_789_" class="st0" d="M430.8,376.9c1.8-1.2,5.5-1.2,7.3-1c2.3,0.2,4,1,5.1,1.7c0.5,0.3,1.1,0.2,1.5-0.2l0,0
					c0.5-0.5,0.4-1.3-0.2-1.7c-1.1-0.8-3.3-2-6-2.1c-4.5-0.1-5.6,0.8-5.6,0.8S431,375.3,430.8,376.9z"/>
				<path id="XMLID_786_" class="st0" d="M442.8,365c-3.1-0.2-4.4,0.2-5.6,0.7c-0.8,0.5-1.2,1.7-0.7,2c1-0.6,2.7-0.9,4.9-0.9
					c1.5,0,3.3,0.5,4.9,1.1c0.4,0.2,0.8,0.4,1.2,0.6c0.5,0.3,1.2,0,1.4-0.5l0,0c0.2-0.5,0-1-0.4-1.3
					C447.5,366.2,445.3,365.2,442.8,365z"/>
			</g>
			<g>
				<path id="XMLID_785_" class="st8" d="M365.5,367.8c-0.5,0.9-0.4,2.5,0,3.6c0.4,1.1,5.7,4.4,13.1,4.2c7.4-0.1,12.5-2.9,15.4-4.6
					c2.9-1.7,5.8-1.9,9.5-2c3.6,0,8.5-1.6,9.4-3.3c0.9-1.7,0.1-4.6,0.1-4.6L365.5,367.8z"/>
				<path id="XMLID_784_" class="st10" d="M396.2,346.3c-0.2-0.1-0.4-0.1-0.6-0.1c-0.3-0.1-0.6-0.2-1-0.1c-0.4,0.1-0.7,0.3-0.9,0.6
					c-0.8,0.8-1.4,1.9-2,2.9c-1.7,2.4-5,4.4-8.6,6.1c-2.5,1.2-4.9,2.1-7.4,3.1c-2.6,1-6,1.6-8,2.8c-3,1.8-3.6,6.7-0.4,8.7
					c2.8,1.8,10.1,3.9,18,2.1c4.3-1,9.2-5.3,14.9-5.5c3.6-0.1,10.3-0.8,12.7-3.4c0.9-1.2,0-5-0.8-8.3c-0.8-3.6-0.5-9-2.1-9l-0.1,1.8
					c-0.2,0.5-1.4,1.1-1.8,1.5c-0.5,0.5-1,1-1.4,1.5c-0.6,0.7-1.3,1.3-2.1,1.7c-1.4,0.6-3.1,0.3-4.6-0.1c-0.1,0,0.8-2.8,0.9-3.1
					c0.1-0.2,0.1-0.5,0.1-0.7c-0.1-0.2-0.2-0.4-0.4-0.5C399.2,347.2,397.8,346.7,396.2,346.3z"/>
				<path id="XMLID_783_" class="st0" d="M386.6,353.8c0,0,0.6-1.3,2.7-1.6c1.6-0.2,4.4,1.1,6.1,2.6c0.7,0.6,0.5,1.8-0.3,2.2l0,0
					c-0.5,0.2-1.1,0.1-1.5-0.2C392.5,355.7,390,353.7,386.6,353.8z"/>
				<path id="XMLID_782_" class="st0" d="M381.4,356.4c0,0,1.1-1.6,3.2-1.5c0,0,4.2,0.3,6.7,2.9c0.6,0.7,0.5,1.7-0.3,2.1v0
					c-0.5,0.2-1.1,0.1-1.4-0.2C388.4,358.6,386.2,356.2,381.4,356.4z"/>
				<path id="XMLID_781_" class="st0" d="M375.8,358.6c0,0,1.2-1.4,3.3-1.3c0,0,3.9,0.3,6.4,2.9c0.6,0.7,0.5,1.7-0.3,2.1l0,0
					c-0.5,0.2-1.1,0.1-1.4-0.2C382.6,361,380.5,358.5,375.8,358.6z"/>
			</g>
		</g>
		<g id="XMLID_778_">
			<path id="XMLID_779_" class="st10" d="M428,100.4c4.7,0.5,10.3,0.8,14.8,1.4c5.8,0.8,10.3,6.8,11.8,16.1c1.6,10.2-5,39.6-5,39.6
				l2.1,34.6c-8.5,6.3-44.8,9.6-62.8-3.5c0,0,0.4-58.9,1.8-68c1.9-12.4,5-20.2,19-21.1L428,100.4z"/>
		</g>
		<g id="XMLID_771_">
			<path id="XMLID_770_" class="st25" d="M460.3,175.4c-1.5,2.6-3.1,5.1-4.6,7.6c-0.6,0.9-1.2,1.9-1.8,2.8c-0.2,0.3-0.8,1-1.2,1.2
				c-0.8,0.5-2.3,0.2-3.3,0.2c-4.5,0.1-9,0.5-13.5,1c-0.7,0.1-1.6,0.2-2,0.9c-0.5,0.7-0.1,1.7,0.6,2.2s1.6,0.6,2.4,0.7
				c1.3,0.2,2.6,0.3,3.9,0.5c0.5,0.1,1.1,0.1,1.6,0.5c1.4,1.2-1.3,2.5-2.1,3.1c-1.6,1.1-3.4,2.1-5.2,2.9c-8.1,3.4-9.1,5.9-7.6,8.7
				c1.3,2.5,6.9,11.4,21.2,3.7c5.7-3.1,14.5-12.9,18.5-17.6c5.7-6.8,15.5-22,15.5-22c5.5-7.6,6.2-10.7,6.4-13.8
				c0.1-3.2-17-27.4-22.8-35.9s-8.6-18.9-23.4-20.3c0,0-5.6,17.9,3.7,29.5l21.6,30.1C468.1,161.4,462.4,171.9,460.3,175.4z"/>
			<path id="XMLID_767_" class="st9" d="M475.9,133.7c-2.8-4-5.7-8.1-8.4-12.2c-11.7-17.1-10.8-20.3-27.7-20.5
				c-1.5,2.3-2.4,12.2-0.1,22.1c1.9,8.4,9,14.2,9,14.2l8.5,11.5c0,0,5.2-0.2,11.4-4.7S475.9,133.7,475.9,133.7z"/>
		</g>
		<g id="XMLID_605_">
			<g id="XMLID_756_">
				<path class="st8" d="M439.2,55.4c-3.2-4.5-7.8-3.7-7.8-3.7l-0.9,21.5l-1.4,7.9l0.3,8.8c0,0,2.4-0.1,3.8-2.9
					c1.3-2.5,5-14.8,5-14.8l0,0C441.4,62.1,440.7,57.5,439.2,55.4z"/>
				<path id="XMLID_765_" class="st25" d="M429.4,73.2c0.4-1.3,0.8-2.1,2.1-3.4c1.2-1.3,6.1-2.7,8.4,1.4c2.3,4.2-1.5,9.7-4.4,11.3
					c-3.7,2.2-5.9-0.8-5.9-0.8l0.1,19.8l0,0c-1.7,4-9.5,7.6-14.2,7c-3.7-0.5-7.1-3.4-3.8-7.6l-0.3-5.6c0,0-4.9,1-7.4,0.7
					c-4.1-0.4-6.8-3.5-8.2-7.8c-2.3-6.9-3.4-12.6-2.4-26.5c1.1-15.3,18.7-16.3,28.5-10.8C431.7,56.5,429.4,73.2,429.4,73.2z"/>
				<path id="XMLID_764_" class="st8" d="M387.8,45.9c-0.4-3.3,0.7-6.9,4.2-8.1c2.6-0.9,5.3-0.8,7.7,1.3c0.9-2.3,3.1-4.1,5.6-4.4
					c2.5-0.3,5.1,1,6.4,3.1c1.1-1.5,2.3-2.4,4-2.8c2-0.5,4.5,0,5.9,1.1c1.4,1.1,3.1,3,2.7,5.5c2.8-1.1,5.7-0.2,7.8,2.3
					c1.3,1.5,1.9,3.4,2,5.4c0,0.9,0,2.1-0.4,3c-0.4,0.9-1.2,1.5-1.5,2.5c-0.2,1-0.7,1.9-0.5,2.8c0.2,1.7,0.6,3.4,0.8,5
					c0.2,1.6,0.4,3.3,0.4,4.9c0,0.8-0.6,1.3-1.2,1.9c-1.1,0.9-1.3,1.4-2.1,3.1c-0.4,0.7-0.7,2.5-1.4,3c-2.1,1.5-2.4-3.3-2.5-4.3
					c-0.1-0.9-0.1-3.3,0-6.4c-0.7,0-3.5-0.1-5.7-2.6c-0.7-0.8-1.3-2.1-1.4-3.1c-0.1-0.7-0.2-1.3-0.2-2c-1.4,2.3-4.6,3.2-6.9,3
					c-3.9-0.3-5.2-2-5.8-3.2c-0.3,1.1-0.8,2.5-1.5,3.3c-1,1-2.3,1.6-3.5,2c-2.2,0.7-4.7-0.2-6.3-1.8c-1.6,2.3-5.5,1.2-6.4,0.6
					c-2-1.5-2.6-3.2-2.9-5.7c-0.2-2.5,0.8-5.3,3.5-6.3C388.3,48.2,387.9,47.1,387.8,45.9z"/>
				<path id="XMLID_759_" class="st26" d="M411.4,95.3c0,0,8.9-2.3,12-4.1c2.1-1.2,3.7-3.3,4.2-4.5c0,0-0.5,2.7-2.2,5.2
					c-2.2,3.1-13.8,5.8-13.8,5.8L411.4,95.3z"/>
			</g>
			<g id="XMLID_691_">
				<path id="XMLID_753_" class="st8" d="M411.9,72.6c0.1,1.1,1,2,2,1.9c1.1-0.1,1.9-1,1.8-2.1c-0.1-1.1-1-2-2-1.9
					C412.6,70.5,411.8,71.5,411.9,72.6z"/>
				<path id="XMLID_749_" class="st26" d="M408.9,87c0.1,1.4,1.2,2.5,2.6,2.5c1.4-0.1,2.4-1.3,2.4-2.7c-0.1-1.4-1.2-2.5-2.6-2.5
					C409.9,84.4,408.8,85.6,408.9,87z"/>
				<path id="XMLID_750_" class="st8" d="M413.5,65.9l4.1,2c0.5-1.2,0-2.6-1.1-3.1C415.4,64.2,414,64.7,413.5,65.9z"/>
				<path id="XMLID_748_" class="st8" d="M395.6,67.6l3.5-3c-0.8-1-2.2-1.2-3.2-0.3C394.9,65.1,394.8,66.6,395.6,67.6z"/>
				<path id="XMLID_745_" class="st8" d="M396.6,72.2c0.1,1.1,0.9,1.9,2,1.8c1-0.1,1.8-1,1.8-2c-0.1-1.1-0.9-1.9-2-1.8
					C397.4,70.2,396.6,71.1,396.6,72.2z"/>
				<polygon id="XMLID_724_" class="st26" points="405.9,70 405.8,81.8 399.6,80 				"/>
			</g>
		</g>
		<g>
			<g>
				<path class="st1" d="M390.2,86.5c0.1,0,0.2-0.1,0.3-0.2c0.1-0.2,0.1-0.5-0.1-0.6l-5.4-3.6c-0.2-0.1-0.5-0.1-0.6,0.1
					c-0.1,0.2-0.1,0.5,0.1,0.6l5.4,3.6C389.9,86.5,390.1,86.5,390.2,86.5z"/>
			</g>
			<g>
				<path class="st1" d="M389.6,88.9c0.2,0,0.3-0.2,0.4-0.3c0.1-0.2-0.1-0.5-0.3-0.6l-6.4-1.5c-0.2-0.1-0.5,0.1-0.6,0.3
					c-0.1,0.2,0.1,0.5,0.3,0.6l6.4,1.5C389.5,88.9,389.5,88.9,389.6,88.9z"/>
			</g>
			<g>
				<path class="st1" d="M383.7,93.1C383.7,93.1,383.7,93.1,383.7,93.1l6.2-2.3c0.2-0.1,0.4-0.4,0.3-0.6c-0.1-0.2-0.4-0.4-0.6-0.3
					l-6.1,2.2c-0.2,0.1-0.4,0.4-0.3,0.6C383.2,93,383.5,93.1,383.7,93.1z"/>
			</g>
		</g>
		<g>
			<g>
				<path class="st1" d="M331.8,141.1c0.2,0.3,0.4,0.6,0.8,0.7c0.8,0.3,1.6-0.1,1.9-0.9l4.6-11.2c0.3-0.8-0.1-1.6-0.9-1.9
					c-0.8-0.3-1.6,0.1-1.9,0.9l-4.6,11.2C331.6,140.3,331.7,140.7,331.8,141.1z"/>
			</g>
			<g>
				<path class="st1" d="M324.3,141c0.2,0.5,0.7,0.8,1.3,0.8c0.8,0,1.4-0.7,1.4-1.5l-0.1-14c0-0.8-0.7-1.4-1.5-1.4
					c-0.8,0-1.4,0.7-1.4,1.5l0.1,14C324.2,140.6,324.2,140.9,324.3,141z"/>
			</g>
			<g>
				<path class="st1" d="M311.6,133.2c0,0.1,0.1,0.1,0.1,0.2l6.9,10c0.4,0.7,1.3,0.8,2,0.4c0.7-0.4,0.8-1.4,0.4-2l-6.9-10
					c-0.4-0.7-1.3-0.8-2-0.4C311.5,131.8,311.3,132.6,311.6,133.2z"/>
			</g>
		</g>
	</g>
</g>
</svg>
